<?xml version="1.0" encoding="UTF-8" standalone="no"?>
<!-- Generator: Adobe Illustrator 18.1.1, SVG Export Plug-In . SVG Version: 6.00 Build 0)  -->

<svg
   xmlns:dc="http://purl.org/dc/elements/1.1/"
   xmlns:cc="http://creativecommons.org/ns#"
   xmlns:rdf="http://www.w3.org/1999/02/22-rdf-syntax-ns#"
   xmlns:svg="http://www.w3.org/2000/svg"
   xmlns="http://www.w3.org/2000/svg"
   xmlns:sodipodi="http://sodipodi.sourceforge.net/DTD/sodipodi-0.dtd"
   xmlns:inkscape="http://www.inkscape.org/namespaces/inkscape"
   version="1.1"
   id="Layer_1"
   x="0px"
   y="0px"
   viewBox="0 0 413.38199 74.036003"
   enable-background="new 0 0 792 612"
   xml:space="preserve"
   sodipodi:docname="cncf_color.svg"
   width="413.38199"
   height="74.036003"
   inkscape:version="0.92.2 5c3e80d, 2017-08-06"><metadata
     id="metadata216"><rdf:RDF><cc:Work
         rdf:about=""><dc:format>image/svg+xml</dc:format><dc:type
           rdf:resource="http://purl.org/dc/dcmitype/StillImage" /><dc:title></dc:title></cc:Work></rdf:RDF></metadata><defs
     id="defs214" /><sodipodi:namedview
     pagecolor="#ffffff"
     bordercolor="#666666"
     borderopacity="1"
     objecttolerance="10"
     gridtolerance="10"
     guidetolerance="10"
     inkscape:pageopacity="0"
     inkscape:pageshadow="2"
     inkscape:window-width="1920"
     inkscape:window-height="1136"
     id="namedview212"
     showgrid="false"
     fit-margin-top="5"
     fit-margin-left="5"
     fit-margin-right="5"
     fit-margin-bottom="5"
     inkscape:zoom="0.79493464"
     inkscape:cx="-1.9743555"
     inkscape:cy="-395.06732"
     inkscape:window-x="0"
     inkscape:window-y="27"
     inkscape:window-maximized="1"
     inkscape:current-layer="Layer_1" /><g
     id="g209"
     transform="translate(-189.375,-268.015)"><path
       d="m 290.198,300.974 c 3.259,0 5.923,-1.289 7.992,-3.868 l 4.25,4.378 c -3.373,3.798 -7.347,5.696 -11.923,5.696 -4.577,0 -8.346,-1.445 -11.307,-4.335 -2.962,-2.891 -4.442,-6.539 -4.442,-10.946 0,-4.406 1.509,-8.083 4.527,-11.031 3.018,-2.947 6.709,-4.42 11.073,-4.42 4.874,0 8.954,1.856 12.242,5.568 l -4.123,4.676 c -2.097,-2.607 -4.704,-3.911 -7.821,-3.911 -2.494,0 -4.626,0.815 -6.397,2.444 -1.771,1.63 -2.657,3.826 -2.657,6.589 0,2.763 0.835,4.98 2.508,6.652 1.671,1.672 3.697,2.508 6.078,2.508 z"
       id="path133"
       inkscape:connector-curvature="0" /><polygon
       points="326.967,300.931 326.967,306.84 307.668,306.84 307.668,277.127 314.299,277.127 314.299,300.931 "
       id="polygon135" /><path
       d="m 355.999,302.738 c -3.004,2.933 -6.702,4.399 -11.094,4.399 -4.393,0 -8.091,-1.466 -11.095,-4.399 -3.004,-2.933 -4.505,-6.581 -4.505,-10.945 0,-4.364 1.501,-8.013 4.505,-10.946 3.003,-2.933 6.702,-4.399 11.095,-4.399 4.392,0 8.09,1.466 11.094,4.399 3.003,2.933 4.506,6.582 4.506,10.946 0,4.364 -1.503,8.012 -4.506,10.945 z m -2.253,-10.925 c 0,-2.649 -0.85,-4.91 -2.55,-6.78 -1.7,-1.871 -3.791,-2.806 -6.27,-2.806 -2.48,0 -4.569,0.935 -6.27,2.806 -1.701,1.87 -2.551,4.13 -2.551,6.78 0,2.65 0.85,4.903 2.551,6.759 1.7,1.856 3.79,2.784 6.27,2.784 2.479,0 4.57,-0.928 6.27,-2.784 1.7,-1.856 2.55,-4.109 2.55,-6.759 z"
       id="path137"
       inkscape:connector-curvature="0" /><path
       d="m 373.979,299.167 c 1.105,1.375 2.593,2.062 4.462,2.062 1.871,0 3.352,-0.687 4.443,-2.062 1.09,-1.375 1.637,-3.252 1.637,-5.632 v -16.408 h 6.631 v 16.62 c 0,4.308 -1.191,7.616 -3.57,9.925 -2.381,2.31 -5.428,3.464 -9.141,3.464 -3.712,0 -6.765,-1.161 -9.16,-3.485 -2.395,-2.323 -3.592,-5.625 -3.592,-9.904 v -16.62 h 6.631 v 16.408 c 0.001,2.381 0.554,4.258 1.659,5.632 z"
       id="path139"
       inkscape:connector-curvature="0" /><path
       d="m 420.736,281.017 c 2.833,2.593 4.251,6.199 4.251,10.818 0,4.619 -1.382,8.275 -4.145,10.967 -2.763,2.692 -6.979,4.038 -12.646,4.038 h -10.159 v -29.712 h 10.5 c 5.299,-10e-4 9.365,1.296 12.199,3.889 z m -4.867,17.661 c 1.629,-1.53 2.444,-3.754 2.444,-6.673 0,-2.918 -0.815,-5.165 -2.444,-6.737 -1.63,-1.573 -4.13,-2.359 -7.502,-2.359 h -3.698 v 18.065 h 4.208 c 3.032,0 5.362,-0.766 6.992,-2.296 z"
       id="path141"
       inkscape:connector-curvature="0" /><polygon
       points="448.579,288.222 448.579,306.84 441.947,306.84 441.947,277.127 448.153,277.127 462.733,296.255 462.733,277.127 469.365,277.127 469.365,306.84 462.733,306.84 "
       id="polygon143" /><path
       d="m 497.844,306.84 -2.763,-6.418 h -12.455 l -2.763,6.418 h -7.057 l 12.838,-29.712 h 6.418 L 504.9,306.84 Z m -8.969,-20.871 -3.741,8.629 h 7.439 z"
       id="path145"
       inkscape:connector-curvature="0" /><polygon
       points="503.71,282.866 503.71,277.127 527.174,277.127 527.174,282.866 518.758,282.866 518.758,306.84 512.126,306.84 512.126,282.866 "
       id="polygon147" /><rect
       x="532.01898"
       y="277.12701"
       width="6.632"
       height="29.712"
       id="rect149" /><polygon
       points="554.123,306.84 542.178,277.127 549.362,277.127 556.928,296.043 564.494,277.127 571.679,277.127 559.733,306.84 "
       id="polygon151" /><polygon
       points="595.142,289.157 595.142,294.81 581.837,294.81 581.837,300.974 597.097,300.974 597.097,306.84 575.205,306.84 575.205,277.127 596.629,277.127 596.629,283.036 581.837,283.036 581.837,289.157 "
       id="polygon153" /><path
       d="m 282.595,332.145 c 1.827,0 3.32,-0.723 4.479,-2.168 l 2.383,2.454 c -1.891,2.129 -4.118,3.192 -6.684,3.192 -2.566,0 -4.678,-0.81 -6.338,-2.431 -1.66,-1.62 -2.49,-3.665 -2.49,-6.135 0,-2.471 0.846,-4.531 2.538,-6.184 1.692,-1.653 3.761,-2.479 6.207,-2.479 2.732,0 5.02,1.041 6.862,3.122 l -2.311,2.621 c -1.176,-1.462 -2.637,-2.192 -4.384,-2.192 -1.398,0 -2.594,0.457 -3.586,1.37 -0.993,0.914 -1.489,2.145 -1.489,3.693 0,1.548 0.468,2.792 1.406,3.729 0.937,0.939 2.073,1.408 3.407,1.408 z"
       id="path155"
       inkscape:connector-curvature="0" /><path
       d="m 306.041,333.133 c -1.684,1.645 -3.757,2.467 -6.219,2.467 -2.462,0 -4.536,-0.822 -6.219,-2.467 -1.684,-1.644 -2.525,-3.688 -2.525,-6.135 0,-2.447 0.842,-4.492 2.525,-6.136 1.684,-1.645 3.757,-2.467 6.219,-2.467 2.462,0 4.535,0.822 6.219,2.467 1.684,1.644 2.526,3.689 2.526,6.136 0,2.447 -0.842,4.491 -2.526,6.135 z m -1.263,-6.123 c 0,-1.485 -0.477,-2.752 -1.43,-3.801 -0.953,-1.048 -2.125,-1.572 -3.515,-1.572 -1.39,0 -2.562,0.524 -3.515,1.572 -0.953,1.049 -1.429,2.315 -1.429,3.801 0,1.486 0.476,2.748 1.429,3.788 0.953,1.041 2.125,1.561 3.515,1.561 1.39,0 2.562,-0.52 3.515,-1.561 0.954,-1.04 1.43,-2.303 1.43,-3.788 z"
       id="path157"
       inkscape:connector-curvature="0" /><polygon
       points="315.429,335.433 311.712,335.433 311.712,318.777 316.739,318.777 321.028,327.927 325.341,318.777 330.345,318.777 330.345,335.433 326.628,335.433 326.628,324.948 322.125,334.051 319.908,334.051 315.429,324.948 "
       id="polygon159" /><path
       d="m 345.916,320.267 c 1.167,0.993 1.751,2.518 1.751,4.575 0,2.057 -0.6,3.562 -1.799,4.515 -1.2,0.953 -3.03,1.43 -5.492,1.43 h -2.216 v 4.646 h -3.717 v -16.655 h 5.885 c 2.558,-0.001 4.421,0.495 5.588,1.489 z m -2.728,6.552 c 0.444,-0.501 0.667,-1.231 0.667,-2.192 0,-0.961 -0.29,-1.645 -0.87,-2.049 -0.58,-0.405 -1.481,-0.608 -2.705,-0.608 h -2.121 v 5.6 h 2.502 c 1.24,-10e-4 2.082,-0.251 2.527,-0.751 z"
       id="path161"
       inkscape:connector-curvature="0" /><path
       d="m 354.982,331.132 c 0.62,0.771 1.454,1.155 2.502,1.155 1.048,0 1.878,-0.385 2.49,-1.155 0.611,-0.771 0.917,-1.823 0.917,-3.157 v -9.197 h 3.717 v 9.316 c 0,2.415 -0.667,4.27 -2.001,5.563 -1.334,1.295 -3.042,1.942 -5.123,1.942 -2.081,0 -3.792,-0.651 -5.135,-1.954 -1.343,-1.303 -2.013,-3.153 -2.013,-5.552 v -9.316 h 3.717 v 9.197 c 0,1.335 0.31,2.387 0.929,3.158 z"
       id="path163"
       inkscape:connector-curvature="0" /><polygon
       points="367.086,321.994 367.086,318.777 380.239,318.777 380.239,321.994 375.521,321.994 375.521,335.433 371.804,335.433 371.804,321.994 "
       id="polygon165" /><rect
       x="382.95499"
       y="318.77701"
       width="3.7179999"
       height="16.655001"
       id="rect167" /><polygon
       points="394.487,324.996 394.487,335.433 390.77,335.433 390.77,318.777 394.249,318.777 402.422,329.5 402.422,318.777 406.139,318.777 406.139,335.433 402.422,335.433 "
       id="polygon169" /><path
       d="m 421.055,326.95 h 3.74 v 5.909 c -1.652,1.843 -3.939,2.764 -6.862,2.764 -2.446,0 -4.499,-0.81 -6.159,-2.431 -1.66,-1.62 -2.49,-3.665 -2.49,-6.135 0,-2.471 0.847,-4.531 2.538,-6.184 1.691,-1.653 3.732,-2.479 6.124,-2.479 2.39,0 4.467,0.787 6.23,2.359 l -1.93,2.788 c -0.747,-0.651 -1.435,-1.1 -2.062,-1.347 -0.628,-0.246 -1.307,-0.369 -2.037,-0.369 -1.414,0 -2.605,0.48 -3.574,1.441 -0.969,0.962 -1.453,2.228 -1.453,3.801 0,1.572 0.464,2.832 1.394,3.776 0.93,0.945 2.037,1.418 3.324,1.418 1.286,0 2.358,-0.246 3.217,-0.738 z"
       id="path171"
       inkscape:connector-curvature="0" /><polygon
       points="445.454,325.64 445.454,328.904 438.115,328.904 438.115,335.433 434.397,335.433 434.397,318.777 445.835,318.777 445.835,322.042 438.115,322.042 438.115,325.64 "
       id="polygon173" /><path
       d="m 462.99,333.133 c -1.684,1.645 -3.757,2.467 -6.219,2.467 -2.463,0 -4.535,-0.822 -6.219,-2.467 -1.685,-1.644 -2.526,-3.688 -2.526,-6.135 0,-2.447 0.842,-4.492 2.526,-6.136 1.684,-1.645 3.756,-2.467 6.219,-2.467 2.462,0 4.535,0.822 6.219,2.467 1.684,1.644 2.525,3.689 2.525,6.136 0,2.447 -0.841,4.491 -2.525,6.135 z m -1.262,-6.123 c 0,-1.485 -0.477,-2.752 -1.43,-3.801 -0.953,-1.048 -2.125,-1.572 -3.515,-1.572 -1.39,0 -2.562,0.524 -3.515,1.572 -0.953,1.049 -1.43,2.315 -1.43,3.801 0,1.486 0.477,2.748 1.43,3.788 0.953,1.041 2.125,1.561 3.515,1.561 1.39,0 2.562,-0.52 3.515,-1.561 0.953,-1.04 1.43,-2.303 1.43,-3.788 z"
       id="path175"
       inkscape:connector-curvature="0" /><path
       d="m 473.069,331.132 c 0.62,0.771 1.454,1.155 2.502,1.155 1.049,0 1.878,-0.385 2.49,-1.155 0.611,-0.771 0.917,-1.823 0.917,-3.157 v -9.197 h 3.718 v 9.316 c 0,2.415 -0.668,4.27 -2.002,5.563 -1.334,1.295 -3.042,1.942 -5.123,1.942 -2.081,0 -3.793,-0.651 -5.135,-1.954 -1.343,-1.303 -2.014,-3.153 -2.014,-5.552 v -9.316 h 3.718 v 9.197 c 0.001,1.335 0.31,2.387 0.929,3.158 z"
       id="path177"
       inkscape:connector-curvature="0" /><polygon
       points="490.272,324.996 490.272,335.433 486.555,335.433 486.555,318.777 490.034,318.777 498.207,329.5 498.207,318.777 501.924,318.777 501.924,335.433 498.207,335.433 "
       id="polygon179" /><path
       d="m 518.746,320.957 c 1.588,1.454 2.383,3.476 2.383,6.064 0,2.59 -0.774,4.639 -2.323,6.147 -1.549,1.51 -3.912,2.264 -7.089,2.264 h -5.695 v -16.655 h 5.886 c 2.97,0 5.249,0.727 6.838,2.18 z m -2.728,9.9 c 0.913,-0.857 1.37,-2.104 1.37,-3.74 0,-1.637 -0.457,-2.896 -1.37,-3.777 -0.914,-0.881 -2.315,-1.322 -4.206,-1.322 h -2.072 v 10.127 h 2.358 c 1.7,0 3.006,-0.429 3.92,-1.288 z"
       id="path181"
       inkscape:connector-curvature="0" /><path
       d="m 535.735,335.433 -1.549,-3.598 h -6.981 l -1.549,3.598 h -3.955 l 7.196,-16.655 h 3.598 l 7.195,16.655 z m -5.027,-11.7 -2.097,4.837 h 4.17 z"
       id="path183"
       inkscape:connector-curvature="0" /><polygon
       points="539.023,321.994 539.023,318.777 552.177,318.777 552.177,321.994 547.459,321.994 547.459,335.433 543.741,335.433 543.741,321.994 "
       id="polygon185" /><rect
       x="554.89203"
       y="318.77701"
       width="3.7179999"
       height="16.655001"
       id="rect187" /><path
       d="m 576.718,333.133 c -1.684,1.645 -3.757,2.467 -6.219,2.467 -2.463,0 -4.535,-0.822 -6.219,-2.467 -1.685,-1.644 -2.526,-3.688 -2.526,-6.135 0,-2.447 0.842,-4.492 2.526,-6.136 1.684,-1.645 3.756,-2.467 6.219,-2.467 2.462,0 4.535,0.822 6.219,2.467 1.684,1.644 2.525,3.689 2.525,6.136 0,2.447 -0.842,4.491 -2.525,6.135 z m -1.263,-6.123 c 0,-1.485 -0.477,-2.752 -1.43,-3.801 -0.953,-1.048 -2.125,-1.572 -3.515,-1.572 -1.39,0 -2.562,0.524 -3.515,1.572 -0.953,1.049 -1.43,2.315 -1.43,3.801 0,1.486 0.477,2.748 1.43,3.788 0.953,1.041 2.125,1.561 3.515,1.561 1.39,0 2.562,-0.52 3.515,-1.561 0.954,-1.04 1.43,-2.303 1.43,-3.788 z"
       id="path189"
       inkscape:connector-curvature="0" /><polygon
       points="586.105,324.996 586.105,335.433 582.388,335.433 582.388,318.777 585.867,318.777 594.04,329.5 594.04,318.777 597.757,318.777 597.757,335.433 594.04,335.433 "
       id="polygon191" /><polygon
       points="215.72,327.902 203.524,327.902 203.524,315.704 194.375,315.704 194.375,337.051 215.72,337.051 "
       id="polygon193"
       style="fill:#446ca9" /><polygon
       points="237.066,337.051 258.411,337.051 258.411,315.704 249.194,315.704 249.262,315.773 249.262,327.902 237.133,327.902 237.066,327.834 "
       id="polygon195"
       style="fill:#446ca9" /><polygon
       points="203.524,282.163 215.652,282.163 215.72,282.231 215.72,273.015 194.375,273.015 194.375,294.362 203.593,294.362 203.524,294.292 203.524,282.166 "
       id="polygon197"
       style="fill:#446ca9" /><polygon
       points="258.411,294.362 258.411,273.015 237.066,273.015 237.066,282.163 249.262,282.163 249.262,294.362 "
       id="polygon199"
       style="fill:#446ca9" /><polygon
       points="215.72,273.015 215.72,282.231 227.85,294.362 235.936,294.362 223.738,282.163 237.066,282.163 237.066,273.015 "
       id="polygon201"
       style="fill:#76c4d5" /><polygon
       points="224.869,327.902 215.72,327.902 215.72,337.051 237.066,337.051 237.066,327.834 231,321.769 224.935,315.704 216.85,315.704 226.957,325.812 229.048,327.902 "
       id="polygon203"
       style="fill:#76c4d5" /><polygon
       points="237.066,295.492 237.066,303.577 243.129,309.64 249.194,315.704 258.411,315.704 258.411,294.362 249.262,294.362 249.262,303.51 249.262,307.688 247.172,305.597 "
       id="polygon205"
       style="fill:#76c4d5" /><polygon
       points="203.524,315.704 203.524,302.378 215.72,314.573 215.72,306.488 203.593,294.362 194.375,294.362 194.375,315.704 "
       id="polygon207"
       style="fill:#76c4d5" /></g></svg>