<?xml version="1.0" encoding="UTF-8" standalone="no"?>
<!-- Generator: Adobe Illustrator 28.1.0, SVG Export Plug-In . SVG Version: 6.00 Build 0)  -->

<svg
   version="1.1"
   id="Layer_1"
   x="0px"
   y="0px"
   viewBox="0 0 2778 595.2"
   style="enable-background:new 0 0 2778 595.2;"
   xml:space="preserve"
   sodipodi:docname="codethink.svg"
   inkscape:export-filename="/home/pieter/Code/FOSDEM/website/content/sponsors/codethink-small.png"
   inkscape:export-xdpi="2.9400001"
   inkscape:export-ydpi="2.9400001"
   inkscape:version="1.1.2 (0a00cf5339, 2022-02-04)"
   xmlns:inkscape="http://www.inkscape.org/namespaces/inkscape"
   xmlns:sodipodi="http://sodipodi.sourceforge.net/DTD/sodipodi-0.dtd"
   xmlns="http://www.w3.org/2000/svg"
   xmlns:svg="http://www.w3.org/2000/svg"><defs
   id="defs15" /><sodipodi:namedview
   id="namedview13"
   pagecolor="#ffffff"
   bordercolor="#666666"
   borderopacity="1.0"
   inkscape:pageshadow="2"
   inkscape:pageopacity="0.0"
   inkscape:pagecheckerboard="0"
   showgrid="false"
   inkscape:zoom="0.49676026"
   inkscape:cx="1387.9935"
   inkscape:cy="296.92391"
   inkscape:window-width="2560"
   inkscape:window-height="1368"
   inkscape:window-x="0"
   inkscape:window-y="0"
   inkscape:window-maximized="1"
   inkscape:current-layer="Layer_1" />
<style
   type="text/css"
   id="style2">
	.st0{fill:#F4F3F2;}
	.st1{fill:#296E72;}
	.st2{fill:#5AB165;}
	.st3{fill:#B5FF6B;}
	.st4{fill:#007839;}
	.st5{fill:#124854;}
</style>
<g
   id="g10">
	<path
   class="st2"
   d="M1975.5,201.9L1975.5,201.9 M1944.2,493.4l0-291.5h-31.3l0,81.5c-35.7-57.1-98.7-95.4-171.5-95.5h-20.7   l0-172.3l-31.4,0l0,172.3h-31.3l0-172.3l-31.3,0l0,172.3l-31.4,0V15.7l-31.3,0V188l-86.9,0V15.7l-31.3,0l0,203.6l295.5,0   c95.3,0.1,171.2,77.7,171.4,172.3l0,101.8v101.8h31.3V493.4z M1524.3,438.3c-25.4,0-47-21.6-47-46.9v-46.7l86.9,0v93.7   L1524.3,438.3z M1165.1,501.2c-28.2,0-56.3-10.6-77.5-31.9h0c-21.3-21.4-31.9-49.4-31.9-77.5c0-28.2,10.6-56.2,31.9-77.5   c21.3-21.3,49.3-31.9,77.5-32c23.2,0,46.3,7.3,65.6,21.7l-107.6,107.8v0.7l-0.3-0.6c-2.9-6.2-4.5-13-4.6-20.1   c0-12.4,4.5-24.1,13.6-33.2l44-43.8c-3.6-0.5-7.1-1.2-10.7-1.2c-20.4,0-40.2,7.6-55.3,22.8v0c-15.2,15.2-22.8,35.1-22.8,55.3   c0,20.3,7.5,40.1,22.8,55.3l0,0c15.1,15.2,35,22.7,55.3,22.8l171.5,0c4.6,11,10.3,21.4,16.7,31.3L1165.1,501.2z M1320.6,346.8v44.5   c0.1,16.3,2.3,32.1,5.9,47.3l-97.6,0L1320.6,346.8z M1043.2,513.5c-33.5-33.5-50.4-77.9-50.3-121.8c0-43.9,16.8-88.3,50.4-121.8h0   c33.5-33.6,77.9-50.4,121.8-50.3c43.9,0,88.3,16.8,121.8,50.3l33.3,33.2l-135.5,135.5h-19.6c-7.1,0-13.9-1.7-20.1-4.6l130.9-130.9   l-11.1-11c-27.4-27.4-63.6-41.1-99.7-41.1c-36.1,0-72.3,13.7-99.6,41.1c-27.4,27.4-41.2,63.7-41.2,99.7s13.7,72.3,41.2,99.7v0   c27.4,27.4,63.6,41.1,99.7,41.1l212.9,0c11.6,12.1,24.8,22.4,39.1,31.3l-252,0C1121.2,564,1076.8,547.1,1043.2,513.5 M1021.1,535.8   c39.5,39.5,92,59.4,143.6,59.4l430.7,0V344.6l31.4,0l0,250.6l31.3,0l0-250.6h31.3l0,250.6h31.4l0-250.6h20.7   c25,0,46.1,20.8,46.1,47l0,203.6h31.4l0-203.6c0-43.3-34.9-78.3-77.5-78.4l-295.6,0v78.1c0.1,42.7,35.6,78.2,78.4,78.3l39.9,0V501   l-39.9,0c-60.3-0.1-109.6-49.4-109.7-109.6V281.9l326.8,0c60.2,0.1,108.8,49.3,108.8,109.7v203.5h31.3l0-203.5   c-0.1-77.5-62.4-141-140.1-141l-326.9,0V15.4l-31.3,0l0,376c0,77.6,63.3,140.9,141,140.9h39.9v31.3h-39.9   c-95.1-0.2-172.2-77.2-172.3-172.3l0-376l-31.4,0l0,244l-11.6-11.6c-39.6-39.6-92.2-59.5-143.9-59.5c-51.7,0-104.3,19.8-144,59.5   c-33.2,33.2-52.4,75.5-57.8,118.8c-1.1,8.4-1.8,16.8-1.8,25.2C961.5,443.5,981.4,496.1,1021.1,535.8L1021.1,535.8 M537.8,563.9   L537.8,563.9c-95.1-0.2-172.1-77.2-172.4-172.3c0.2-95.1,77.3-172.1,172.4-172.3c38.1,0,73.3,12.7,101.8,33.7   c-7.2,7.6-13.7,15.9-19.6,24.5c-23.2-16.8-51.5-26.9-82.2-26.9c-77.7,0.1-141,63.4-141,141c0,77.6,63.4,140.9,141,140.9v0   c77.6,0,140.9-63.3,140.9-141c0.1-60.1,49.4-109.5,109.7-109.6c16.8,0,32.7,4,47,10.9v36.8c-13.2-10.1-29.4-16.4-47-16.4   c-42.8,0-78.3,35.6-78.4,78.3l0,0.2C709.8,486.8,632.8,563.7,537.8,563.9 M584.8,391.6c-0.1,25.3-21.7,47-46.9,47   c-25.4,0-47-21.7-47.1-47c0.1-25.3,21.7-46.9,47.1-47C563.1,344.6,584.7,366.3,584.8,391.6L584.8,391.6z M835.4,226.1v32.9   c-14.7-5.3-30.5-8.3-47-8.3c-77.7,0-140.9,63.3-141,140.9h0c-0.1,60.2-49.5,109.6-109.6,109.7v0c-60.3,0-109.6-49.4-109.8-109.6   c0.1-60.2,49.5-109.5,109.8-109.7c25,0.1,48,8.9,66.4,23.3c-4.7,10-8.6,20.4-11.6,31.1c-14.2-14.1-33.6-22.9-54.9-23   c-42.8,0.1-78.4,35.6-78.4,78.3c0,42.8,35.6,78.3,78.4,78.4c42.7-0.1,78.2-35.5,78.3-78.4l0-0.1c0.3-95,77.3-171.9,172.4-172.2   C804.8,219.3,820.5,221.7,835.4,226.1 M788.4,438.6c-25.4,0-47-21.7-47-47c0-25.3,21.7-46.9,47-47c25.3,0.1,46.9,21.7,46.9,47   C835.4,416.9,813.7,438.5,788.4,438.6 M960.7,15.4l0,376.2h0c-0.1,95.1-77.2,172.1-172.2,172.3c-38.2-0.1-73.3-12.8-101.8-33.9   c7.1-7.6,13.8-15.7,19.6-24.3c23.2,16.7,51.5,26.8,82.1,26.8c77.6,0,140.9-63.3,140.9-140.9l0-376.2l-31.3,0l0,376.2   c-0.1,60.2-49.5,109.5-109.6,109.7c-25.1,0-47.9-9.2-66.4-23.6c4.6-9.8,8.5-20,11.4-30.6c14.2,14.1,33.7,22.9,55,23   c42.8-0.1,78.2-35.5,78.3-78.4l0-376.2l-31.3,0l0,178.3c-15.1-3.6-30.8-5.7-47-5.7c-47.5,0.1-91,16.4-125.5,43.6   c-34.5-27.1-77.8-43.4-125.1-43.6c-112.6,0.3-203.4,91.1-203.7,203.6c0,16.2,2.2,31.9,5.8,47l-42.3,0c-37.6,0-72.6-15.9-98.9-42.4   c-26.2-26.6-42.1-62.5-42-100.6c0.1-76.7,62.1-138.7,138.8-138.8c38.5,0,72.6,15.4,98,40.5l22.1-22.1   c-30.9-30.8-73.1-49.7-120.1-49.7c-94,0.1-170,76.2-170.2,170.2c0,46.8,19.5,90.5,51.1,122.6c31.8,32.1,74.7,51.7,121.2,51.7   l52.3,0c4.6,11,10.2,21.4,16.6,31.3l-68.9,0C186.7,501,94.2,406.7,94,295.5C94.2,184.2,184.2,94.2,295.5,94   c55.6,0,105.8,22.4,142.3,58.8l11-11.1l11.1-11.1h0c-42.1-42-100.3-68-164.4-68c-128.6,0-232.8,104.2-232.8,232.8   c0.2,128.6,106,236.8,235,237l93.5,0c11.5,12,24.5,22.4,38.6,31.3H297.7c-147-0.6-265.8-122.2-266.3-268.3   c0-145.9,118.3-264.1,264.2-264.1c72.6,0,138.9,29.5,186.5,77.1l0,0l22.1-22.1l0,0C451,33.1,376.7,0,295.5,0   C132.3,0,0.1,132.3,0,295.5c0.9,163.6,132.5,298.6,297.7,299.7l239.4,0l0.8,0h0c47.4-0.1,90.8-16.4,125.3-43.5   c34.5,27.1,78,43.4,125.3,43.5c112.5-0.3,203.3-91.1,203.5-203.6h0l0-376.2L960.7,15.4z M1021,247.9   c-33.1,33.1-52.3,75.3-57.6,118.7c5.4-43.3,24.6-85.6,57.8-118.8L1021,247.9z"
   id="path4" />
	<path
   class="st2"
   d="M2382.8,595.2h-31.4 M2320.1,595.2h-31.3 M1992,62.7c-17.2,0-31,13.9-31,31.1c0,17.1,13.8,31.1,31,31.1   c17.2,0,31.1-13.9,31.1-31.1C2023.1,76.6,2009.2,62.7,1992,62.7 M1992,156.2c-34.5,0-62.4-27.9-62.4-62.5   c0-34.4,27.9-62.4,62.4-62.4c34.5,0,62.4,28,62.4,62.4C2054.4,128.2,2026.6,156.2,1992,156.2 M1992,0   c-51.9,0.1-93.7,41.9-93.7,93.8c0,51.8,41.8,93.7,93.7,93.7c51.9,0,93.7-42.1,93.7-93.7C2085.7,42.1,2043.9,0.1,1992,0    M1975.5,595.2h31.4l0-393.3h-31.4L1975.5,595.2z"
   id="path6" />
	<path
   class="st2"
   d="M2734.4,391.6c27-34.5,43.4-77.9,43.5-125.3l0-64.4l-31.4,0v64.4c-0.1,95.1-77.2,172.1-172.2,172.3v0h-3.6   v-31.4h3.6v0c77.6-0.1,140.9-63.4,141-141l0-64.4H2684l0,64.4c-0.1,60.1-49.4,109.5-109.6,109.6h-3.6v-31.4h3.6   c42.7,0,78.2-35.5,78.3-78.3l0-64.4l-31.3,0v64.4c-0.1,25.3-21.8,46.9-47,47h-3.6l0-297.6l-31.3,0l0,579.5h31.3V469.9h3.6   c25.3,0,46.9,21.7,47,47v78.4l31.3,0l0-78.4c0-21.3-8.9-40.7-23-54.9c10.7-3,21-7,31-11.6c14.3,18.5,23.3,41.5,23.3,66.5v78.4h31.4   l0-78.4c0-30.7-10-59-26.8-82.2c8.7-5.9,16.7-12.5,24.4-19.7c21,28.6,33.7,63.7,33.7,101.9v78.4h31.4l0-78.4   C2777.8,469.5,2761.5,426.1,2734.4,391.6 M2508.1,15.7l-31.3,0l0,579.5h31.3L2508.1,15.7z M2445.5,15.7l-31.4,0v268.1   c-36-57.4-99.5-95.5-172.3-95.7c-72.8,0.2-136.3,38.3-172.3,95.6v-81.7l-31.3,0v188.5l-0.1,1.2l0,203.6h31.4v-204   c0.4-94.9,77.3-171.7,172.3-171.9c95,0.2,172,77.2,172.3,172.3v203.6h31.4V15.7z M2241.8,281.9c60.2,0.1,109.5,49.5,109.6,109.7   v203.6h31.4l0-203.6c-0.1-77.6-63.4-140.9-140.9-140.9c-77.7,0-140.9,63.4-141,140.9v203.6h31.4l0-203.6   C2132.3,331.4,2181.6,282,2241.8,281.9 M2320.1,595.2V391.6c0-42.7-35.6-78.3-78.3-78.3c-42.8,0-78.3,35.5-78.4,78.3v203.6h31.3   V391.6c0-25.3,21.6-46.9,47-47c25.3,0,46.9,21.7,47,47v203.6H2320.1z"
   id="path8" />
</g>
</svg>
