<?xml version="1.0" encoding="UTF-8" standalone="no"?>
<svg
   xmlns:svg="http://www.w3.org/2000/svg"
   xmlns="http://www.w3.org/2000/svg"
   version="1.1"
   width="694.48816"
   height="276.37796"
   viewBox="0 0 694.48813 276.37795"
   id="colt-Logo"
   xml:space="preserve"><defs
   id="defs3340" />
<path
   d="m 229.42044,162.19771 c 0,-53.514 39.169,-110.352 111.953,-110.352 72.84,0 111.973,56.838 111.973,110.719 0,53.993 -39.133,110.741 -111.973,110.741 -72.784,0 -111.953,-56.748 -111.953,-110.741 v -0.367 z m 50.037,0.367 c 0,36.491 27.758,63.656 61.917,63.656 34.235,0 61.938,-27.165 61.938,-64.023 0,-36.857 -27.703,-64.022998 -61.938,-64.022998 -34.159,0 -61.917,27.165998 -61.917,64.022998 v 0.367 z m 269,65.274 c 0,0 -14.494,0.131 -14.89,-12.767 V 2.8577091 h -50.056 V 214.43371 c 0,0 -3.891,52.413 45.77,52.413 v 0.058 h 39.931 v -39.065 h -20.755 z m -378.041,-36.775 c -7.596,17.204 -25.239,35.721 -56.382,35.806 -35.438004,0 -61.636004,-26.846 -61.636004,-64.305 0,-18.273 6.599,-35.25 17.268,-46.361 12.07,-12.145 26.18,-18.405998 44.491004,-17.925998 27.298,-0.103 47.319,15.406998 56.362,37.421998 l 42.074,-24.102 c -18.602,-36.872 -56.823,-60.01 -100.26,-60.01 -62.755004,0 -110.2340037,49.303 -110.2340037,110.808 0,59.877 45.8529997,111.183 111.8320037,111.183 44.556,0 80.455,-24.571 98.532,-59.022 l -41.088,-23.492 h -0.959 z m 491.762,36.755 c 0,0 -14.495,0.151 -14.908,-12.764 v -112.895 h 40.202 v -39.094 h -40.203 V 2.8577091 h -50.027 V 214.41471 c 0,0 -2.979,52.565 45.741,52.442 l 0.019,0.039 h 48.062 v -39.077 h -28.886 z"
   id="path3336"
   style="fill:#2f2e28" />
</svg>