<?xml version="1.0" encoding="UTF-8" standalone="no"?>
<!-- Created with Inkscape (http://www.inkscape.org/) -->

<svg
   xmlns:dc="http://purl.org/dc/elements/1.1/"
   xmlns:cc="http://creativecommons.org/ns#"
   xmlns:rdf="http://www.w3.org/1999/02/22-rdf-syntax-ns#"
   xmlns:svg="http://www.w3.org/2000/svg"
   xmlns="http://www.w3.org/2000/svg"
   xmlns:sodipodi="http://sodipodi.sourceforge.net/DTD/sodipodi-0.dtd"
   xmlns:inkscape="http://www.inkscape.org/namespaces/inkscape"
   version="1.1"
   id="svg943"
   width="990.04633"
   height="262.01492"
   viewBox="0 0 990.04633 262.01492"
   sodipodi:docname="drawio.svg"
   inkscape:version="0.92.4 5da689c313, 2019-01-14">
  <metadata
     id="metadata949">
    <rdf:RDF>
      <cc:Work
         rdf:about="">
        <dc:format>image/svg+xml</dc:format>
        <dc:type
           rdf:resource="http://purl.org/dc/dcmitype/StillImage" />
        <dc:title></dc:title>
      </cc:Work>
    </rdf:RDF>
  </metadata>
  <defs
     id="defs947" />
  <sodipodi:namedview
     pagecolor="#ffffff"
     bordercolor="#666666"
     borderopacity="1"
     objecttolerance="10"
     gridtolerance="10"
     guidetolerance="10"
     inkscape:pageopacity="0"
     inkscape:pageshadow="2"
     inkscape:window-width="1920"
     inkscape:window-height="1136"
     id="namedview945"
     showgrid="false"
     fit-margin-top="1"
     fit-margin-left="1"
     fit-margin-right="1"
     fit-margin-bottom="1"
     inkscape:zoom="0.95985814"
     inkscape:cx="471.84523"
     inkscape:cy="-125.3049"
     inkscape:window-x="0"
     inkscape:window-y="27"
     inkscape:window-maximized="1"
     inkscape:current-layer="svg943" />
  <g
     id="g5257"
     transform="translate(0.96617212,0.97441881)">
    <g
       transform="matrix(0.13994344,0,0,0.13994344,0.03382788,0.02558119)"
       id="g5202">
      <path
         d="m 1858,1778.7 c 0,44.8 -36.8,79.3 -79.3,79.3 H 79.3 C 34.5,1858 0,1821.2 0,1778.7 V 79.3 C 0,34.5 36.8,0 79.3,0 h 1699.3 c 44.8,0 79.3,36.8 79.3,79.3 v 1699.4 z"
         id="path871"
         inkscape:connector-curvature="0"
         style="fill:#f08705" />
      <path
         d="m 1858,1778.7 c 0,44.8 -36.8,79.3 -79.3,79.3 H 635.8 l -370.2,-376 230,-376 683,-848.5 677.2,697.9 z"
         id="path873"
         inkscape:connector-curvature="0"
         style="fill:#df6c0c" />
      <path
         d="m 1525.7,1038.2 h -195.5 l -207,-351.8 c 46,-9.2 80.5,-50.6 80.5,-98.9 V 321.9 c 0,-56.3 -44.8,-101.2 -101.2,-101.2 H 757.7 c -56.3,0 -101.2,44.8 -101.2,101.2 v 265.6 c 0,49.4 34.5,89.7 79.3,98.9 l -207,353 H 333.4 c -56.3,0 -101.2,44.8 -101.2,101.2 v 265.6 c 0,56.3 44.8,101.2 101.2,101.2 h 344.9 c 56.3,0 101.2,-44.8 101.2,-101.2 v -265.6 c 0,-56.3 -44.8,-101.2 -101.2,-101.2 H 645 L 849.7,689.9 h 159.8 l 205.8,349.5 h -34.5 c -56.3,0 -101.2,44.8 -101.2,101.2 v 265.6 c 0,56.3 44.8,101.2 101.2,101.2 h 344.9 c 56.3,0 101.2,-44.8 101.2,-101.2 v -265.6 c 0,-56.4 -44.8,-102.4 -101.2,-102.4 z"
         id="path875"
         inkscape:connector-curvature="0"
         style="fill:#ffffff" />
    </g>
  </g>
  <g
     transform="matrix(0.35388516,0,0,0.35388516,339.66708,-670.34474)"
     id="g5230">
    <path
       style="fill:#333333"
       inkscape:connector-curvature="0"
       id="path877"
       d="m 263.3,2483.5 c 0,2.3 0,3.4 -1.1,5.7 -1.1,1.1 -2.3,2.3 -4.6,3.4 -2.3,1.1 -5.7,1.1 -9.2,2.3 -3.4,0 -9.2,1.1 -14.9,1.1 -5.7,0 -11.5,0 -14.9,-1.1 -3.4,0 -6.9,-1.1 -9.2,-2.3 -2.3,-1.1 -4.6,-2.3 -5.7,-3.4 -1.1,-1.1 -1.1,-3.4 -1.1,-5.7 v -28.7 c -13.8,14.9 -27.6,25.3 -42.5,33.3 -14.9,8 -31,11.5 -49.4,11.5 -19.5,0 -36.8,-3.4 -50.6,-11.5 -13.8,-8 -25.3,-18.4 -33.3,-31 -9.2,-12.6 -14.9,-28.7 -18.4,-46 -3.4,-17.2 -5.7,-35.6 -5.7,-55.2 0,-23 2.3,-43.7 6.9,-63.2 4.6,-18.4 12.6,-34.5 21.8,-47.1 9.2,-12.6 21.8,-23 35.6,-29.9 13.8,-6.9 31,-10.3 49.4,-10.3 14.9,0 27.6,3.4 40.2,9.2 11.5,5.7 24.1,14.9 35.6,26.4 v -141.4 c 0,-2.3 0,-3.4 1.1,-5.7 1.1,-1.1 3.4,-3.4 5.7,-3.4 2.3,-1.1 6.9,-2.3 11.5,-2.3 4.6,-1.1 10.3,-1.1 18.4,-1.1 6.9,0 12.6,0 18.4,1.1 4.6,1.1 8,1.1 11.5,2.3 2.3,1.1 4.6,2.3 5.7,3.4 1.1,1.1 2.3,3.4 2.3,5.7 z m -73.6,-174.8 c -10.3,-13.8 -20.7,-23 -29.9,-31 -9.2,-6.9 -19.5,-10.3 -29.9,-10.3 -9.2,0 -18.4,2.3 -25.3,6.9 -6.9,4.6 -12.6,11.5 -17.2,19.5 -4.6,8 -6.9,17.2 -9.2,26.4 -2.3,10.3 -3.4,19.5 -3.4,29.9 0,11.5 1.1,21.8 2.3,32.2 2.3,10.3 4.6,19.5 9.2,27.6 3.4,8 9.2,14.9 16.1,19.5 6.9,4.6 14.9,6.9 25.3,6.9 4.6,0 10.3,-1.1 14.9,-2.3 4.6,-1.2 9.2,-3.4 14.9,-6.9 4.6,-3.4 10.3,-8 14.9,-12.6 5.7,-5.7 11.5,-11.5 17.2,-19.5 v -86.3 z m 312.7,-62.1 c 0,6.9 0,12.6 -1.1,17.2 0,4.6 -1.1,8 -2.3,10.3 -1.1,2.3 -2.3,4.6 -3.4,5.7 -1.1,1.1 -3.4,1.1 -4.6,1.1 -1.2,0 -3.4,0 -5.7,-1.1 -2.3,-1.1 -4.6,-1.1 -6.9,-2.3 -2.3,-1.2 -4.6,-1.1 -8,-2.3 -3.4,-1.1 -5.7,-1.1 -9.2,-1.1 -4.6,0 -8,1.1 -12.6,2.3 -4.6,1.1 -8,4.6 -12.6,8 -4.6,3.4 -9.2,8 -13.8,13.8 -4.6,5.7 -10.3,12.6 -14.9,21.8 v 163.3 c 0,2.3 -1.1,3.4 -2.3,4.6 -1.2,1.2 -3.4,2.3 -5.7,3.4 -2.3,1.1 -6.9,1.1 -11.5,2.3 -4.6,0 -10.3,1.1 -18.4,1.1 -6.9,0 -12.6,0 -18.4,-1.1 -4.6,0 -8,-1.1 -11.5,-2.3 -2.3,-1.1 -4.6,-2.3 -5.7,-3.4 -1.1,-1.1 -2.3,-3.4 -2.3,-4.6 v -261 c 0,-2.3 0,-3.4 1.1,-4.6 1.1,-1.1 2.3,-2.3 5.7,-3.4 2.3,-1.1 5.7,-1.1 10.3,-2.3 3.4,0 9.2,-1.1 14.9,-1.1 5.7,0 11.5,0 16.1,1.1 4.6,0 6.9,1.1 9.2,2.3 2.3,1.1 3.4,2.3 4.6,3.4 1.1,1.1 1.1,3.4 1.1,4.6 v 32.2 c 6.9,-9.2 13.8,-17.2 19.5,-24.1 5.7,-6.9 11.5,-11.5 17.2,-14.9 5.7,-3.4 11.5,-5.7 16.1,-8 5.7,-1.1 11.5,-2.3 16.1,-2.3 h 8 c 3.4,0 5.7,1.1 9.2,1.1 3.4,1.1 5.7,1.1 8,2.3 l 4.6,2.3 c 1.1,1.1 2.3,2.3 2.3,3.4 0,1.1 1.1,2.3 1.1,4.6 0,2.3 1.1,4.6 1.1,9.2 4.7,5.9 4.7,10.5 4.7,18.5 z m 266.8,238 c 0,2.3 -1.1,4.6 -3.4,6.9 -2.3,1.1 -4.6,2.3 -9.2,3.4 -4.6,1.1 -10.3,1.1 -18.4,1.1 -9.2,0 -14.9,0 -19.5,-1.1 -3.4,-1.1 -6.9,-2.3 -8,-3.4 -1.1,-1.1 -2.3,-3.4 -2.3,-6.9 v -20.7 c -10.3,11.5 -23,20.7 -36.8,26.4 -13.8,6.9 -28.7,9.2 -46,9.2 -13.8,0 -26.4,-2.3 -37.9,-5.7 -11.5,-3.4 -21.8,-9.2 -29.9,-16.1 -8,-6.9 -14.9,-16.1 -19.5,-26.4 -4.6,-10.3 -6.9,-23 -6.9,-36.8 0,-14.9 3.4,-28.7 9.2,-40.2 5.8,-11.5 14.9,-20.7 26.4,-27.6 11.5,-6.9 26.4,-12.6 43.7,-16.1 17.2,-3.4 37.9,-5.7 60.9,-5.7 h 25.3 v -16.1 c 0,-8 -1.1,-14.9 -2.3,-21.8 -1.1,-5.7 -4.6,-11.5 -8,-14.9 -3.4,-4.6 -9.2,-6.9 -14.9,-9.2 -6.9,-2.3 -13.8,-3.4 -24.1,-3.4 -12.6,0 -23,1.1 -33.3,4.6 -9.2,2.3 -18.4,5.7 -25.3,9.2 l -18.4,9.2 c -4.6,2.3 -9.2,4.6 -12.6,4.6 -2.3,0 -4.6,-1.1 -5.7,-2.3 -1.1,-1.1 -3.4,-3.4 -4.6,-5.7 -1.1,-2.3 -2.3,-5.7 -2.3,-9.2 -1.1,-3.4 -1.1,-8 -1.1,-12.6 0,-5.7 0,-10.3 1.1,-13.8 1.1,-3.4 2.3,-6.9 5.7,-9.2 2.3,-2.3 8,-5.7 13.8,-9.2 6.9,-3.4 14.9,-6.9 24.1,-9.2 9.2,-3.4 19.5,-5.7 29.9,-6.9 10.3,-2.3 21.8,-2.3 33.3,-2.3 20.7,0 37.9,2.3 52.9,5.7 14.9,3.4 26.4,10.3 35.6,18.4 9.2,8 16.1,19.5 20.7,32.2 4.6,12.6 6.9,28.7 6.9,47.1 z m -72.5,-112.7 h -27.6 c -11.5,0 -21.8,1.1 -31,2.3 -8,2.3 -14.9,4.6 -20.7,8 -5.7,3.4 -9.2,8 -11.5,12.6 -2.3,4.6 -3.4,10.3 -3.4,17.2 0,11.5 3.4,19.5 10.3,25.3 6.9,5.7 16.1,9.2 28.7,9.2 10.3,0 19.5,-2.3 28.7,-8 9.2,-5.7 17.2,-12.6 26.4,-23 v -43.6 z m 537,-150.6 c 0,2.3 0,4.6 -1.1,8 -1.1,3.4 -1.1,8 -3.4,13.8 L 1159,2480 c -1.1,3.4 -2.3,5.7 -3.4,8 -1.1,2.3 -3.4,3.4 -6.9,4.6 -3.4,1.1 -8,2.3 -13.8,2.3 -5.7,0 -13.8,1.1 -23,1.1 -9.2,0 -17.2,0 -23,-1.1 -5.7,0 -10.3,-1.1 -13.8,-2.3 -3.4,-1.1 -5.7,-2.3 -8,-4.6 -1.1,-2.3 -2.3,-4.6 -3.4,-8 l -43.7,-158.7 -1.1,-2.3 -1.1,2.3 -40.5,158.7 c -1.1,3.4 -2.3,5.7 -3.4,8 -1.1,2.3 -3.4,3.4 -8,4.6 -3.4,1.1 -8,2.3 -13.8,2.3 -5.7,0 -13.8,1.1 -23,1.1 -10.3,0 -17.2,0 -24.1,-1.1 -5.7,0 -10.3,-1.1 -13.8,-2.3 -3.4,-1.1 -5.7,-2.3 -8,-4.6 -1.1,-2.3 -2.3,-4.6 -3.4,-8 l -69,-236.8 c -2.3,-5.7 -3.4,-10.3 -3.4,-13.8 0,-3.4 -1.1,-5.7 -1.1,-8 0,-2.3 0,-3.4 1.1,-4.6 1.1,-1.1 3.4,-2.3 5.7,-3.4 2.3,-1.1 6.9,-1.1 11.5,-2.3 4.6,0 10.3,-1.1 18.4,-1.1 8.1,0 13.8,0 19.5,1.1 4.6,0 9.2,1.1 11.5,2.3 2.3,1.1 4.6,2.3 5.7,3.4 1.1,1.1 2.3,3.4 2.3,5.7 l 51.7,192 1.1,3.4 1.1,-3.4 48.3,-192 c 1.1,-2.3 1.1,-4.6 2.3,-5.7 1.1,-1.1 3.4,-3.4 5.7,-3.4 2.3,-1.1 5.7,-1.1 10.3,-2.3 4.6,0 10.3,-1.1 17.2,-1.1 6.9,0 12.6,0 17.2,1.1 4.6,0 8,1.1 10.3,2.3 2.3,1.2 4.6,2.3 5.7,3.4 1.1,1.1 2.3,3.4 2.3,4.6 l 51.7,193.2 1.1,3.4 1.1,-3.4 49.4,-192 c 0,-2.3 1.1,-4.6 2.3,-5.7 1.1,-1.1 3.4,-3.4 5.7,-3.4 2.3,-1.1 6.9,-1.1 11.5,-2.3 4.6,0 10.3,-1.1 18.4,-1.1 6.9,0 12.6,0 17.2,1.1 4.6,0 8,1.1 10.3,2.3 2.3,1.1 4.6,2.3 5.7,3.4 4.1,1 4.1,2.1 4.1,4.4 z m 109.2,230 c 0,18.4 -3.4,29.9 -9.2,36.8 -6.9,5.7 -17.2,9.2 -34.5,9.2 -16.1,0 -27.6,-3.4 -34.5,-9.2 -5.7,-5.7 -9.2,-18.4 -9.2,-34.5 0,-18.4 3.4,-31 9.2,-36.8 6.9,-5.7 18.4,-9.2 34.5,-9.2 16.1,0 27.6,3.4 33.3,9.2 8.1,4.6 10.4,17.2 10.4,34.5 z" />
    <path
       style="fill:#f08705"
       inkscape:connector-curvature="0"
       id="path879"
       d="m 1498.1,2132.8 c 0,14.9 -3.4,25.3 -9.2,31 -5.7,5.7 -17.2,8 -33.3,8 -16.1,0 -27.6,-2.3 -33.3,-8 -5.7,-5.7 -9.2,-14.9 -9.2,-29.9 0,-15 3.4,-25.3 9.2,-31 5.8,-5.7 17.2,-9.2 33.3,-9.2 16.1,0 27.6,2.3 33.3,8 6.9,6.9 9.2,17.3 9.2,31.1 z m -4.6,350.7 c 0,2.3 -1.1,3.4 -2.3,4.6 -1.1,1.1 -3.4,2.3 -5.7,3.4 -2.3,1.1 -6.9,1.1 -11.5,2.3 -4.6,0 -10.3,1.1 -18.4,1.1 -6.9,0 -12.6,0 -18.4,-1.1 -4.6,0 -8,-1.1 -11.5,-2.3 -2.3,-1.1 -4.6,-2.3 -5.7,-3.4 -1.1,-1.1 -2.3,-3.4 -2.3,-4.6 v -261 c 0,-2.3 1.1,-3.4 2.3,-4.6 1.1,-1.1 3.4,-2.3 5.7,-3.4 2.3,-1.1 6.9,-2.3 11.5,-2.3 4.6,-1.1 10.3,-1.1 18.4,-1.1 8.1,0 12.6,0 18.4,1.1 4.6,1.1 8,1.1 11.5,2.3 2.3,1.1 4.6,2.3 5.7,3.4 1.1,1.1 2.3,3.4 2.3,4.6 z M 1835,2350.1 c 0,21.8 -3.4,42.5 -9.2,60.9 -5.7,18.4 -14.9,34.5 -26.4,47.1 -11.5,13.8 -26.4,23 -44.8,31 -18.4,6.9 -39.1,10.3 -63.2,10.3 -23,0 -43.7,-3.4 -60.9,-9.2 -17.2,-6.9 -31,-16.1 -42.5,-27.6 -11.5,-12.6 -19.5,-27.6 -25.3,-46 -5.7,-18.4 -8,-37.9 -8,-62.1 0,-21.8 3.4,-42.5 9.2,-60.9 5.7,-18.4 14.9,-34.5 26.4,-47.1 11.5,-12.6 26.4,-23 44.8,-31 18.4,-6.9 39.1,-10.3 63.2,-10.3 23,0 43.7,3.4 60.9,9.2 17.2,6.9 31,16.1 42.5,27.6 11.5,12.6 19.5,27.6 25.3,46 4.6,18.4 8,39.1 8,62.1 z m -75.9,2.3 c 0,-12.6 -1.1,-25.3 -3.4,-35.6 -2.3,-10.3 -5.7,-20.7 -10.3,-28.7 -4.6,-8 -11.5,-13.8 -19.5,-18.4 -8,-4.6 -18.4,-6.9 -31,-6.9 -11.5,0 -20.7,2.3 -28.7,5.7 -8,3.4 -14.9,10.3 -20.7,17.2 -5.7,8 -9.2,17.2 -11.5,27.6 -2.3,10.3 -3.4,23 -3.4,36.8 0,12.6 1.1,25.3 3.4,35.6 2.3,10.3 5.7,20.7 10.3,28.7 4.6,8 11.5,13.8 19.5,18.4 8,4.6 18.4,6.9 31,6.9 11.5,0 20.7,-2.3 28.7,-5.7 8,-3.4 14.9,-10.3 20.7,-17.2 5.7,-8 9.2,-17.2 11.5,-27.6 2.3,-10.4 3.4,-23 3.4,-36.8 z" />
  </g>
</svg>
