<?xml version="1.0" encoding="UTF-8" standalone="no"?>

<svg
   version="1.1"
   id="Layer_1"
   x="0px"
   y="0px"
   viewBox="0 0 450 160"
   xml:space="preserve"
   width="450"
   height="160"
   xmlns="http://www.w3.org/2000/svg"
   xmlns:svg="http://www.w3.org/2000/svg"><defs
   id="defs19" />
<style
   type="text/css"
   id="style2">
	.st0{fill:#00A5B5;}
	.st1{fill:#FF9015;}
</style>

<g
   id="g308"
   transform="translate(3.9910717,4.3)"><path
     class="st0"
     d="m 75.103571,0 c -1.5,0 -2.8,1.2 -2.8,2.8 v 0 25.9 c -1.2,-0.9 -2.5,-1.7 -3.9,-2.4 -7.1,-3.8 -15,-5.8 -23.1,-5.6 -8,-0.1 -16,1.8 -23.1,5.6 -6.7,3.7 -12.3999996,9.3 -16.1999996,16.2 -4.1,7.3 -6.09999997,15.6 -5.99999997,24 0,9.1 1.89999997,17.2 5.79999997,24.1 3.7,6.8 9.2999996,12.4 15.9999996,16.1 7,3.9 14.8,5.8 22.7,5.7 8.1,0.1 16.1,-1.9 23.3,-5.7 7,-3.7 12.8,-9.3 16.7,-16.2 5.1,-9.2 6.1,-17.6 6.1,-32.1 V 2.8 c 0,-1.5 -1.2,-2.8 -2.8,-2.8 v 0 z m -7.2,82.9 c -2.3,4.3 -5.8,7.8 -10.1,10.2 -4.1,2.2 -8.7,3.4 -13.3,3.4 -7,0.2 -13.7,-2.7 -18.4,-7.8 -4.9,-5.2 -7.3,-12.6 -7.3,-22.2 0,-6.4 1.2,-11.9 3.5,-16.4 2.1,-4.2 5.5,-7.7 9.6,-10.1 4,-2.3 8.5,-3.4 13.1,-3.4 4.6,0 9.2,1.1 13.2,3.4 4.2,2.4 7.6,5.9 9.9,10.1 2.5,4.5 3.7,9.9 3.7,16.4 0,6.4 -1.3,11.9 -3.9,16.4 z"
     id="path4" /><path
     class="st0"
     d="m 124.80357,108.7 c -5.2,-2.3 -9.7,-5.8 -13.2,-10.3 -2.5,-3.3 -4.2,-7.2 -4.8,-11.3 -0.2,-1.5 0.8,-3 2.4,-3.2 0.1,0 0.3,0 0.4,0 h 13.5 c 1.3,0 2.4,0.8 2.7,2.1 0.8,3 2.6,5.6 5.1,7.3 3.6,2.6 7.9,4 12.3,3.8 5.2,0 9.2,-1 12,-3 2.7,-1.6 4.3,-4.5 4.3,-7.7 0.1,-3.2 -1.8,-6.2 -4.8,-7.4 -4.8,-2.2 -9.9,-4 -15.1,-5.3 -5.5,-1.4 -11,-3.2 -16.3,-5.3 -4.2,-1.7 -7.9,-4.4 -10.9,-7.9 -3.1,-3.5 -4.6,-8.2 -4.6,-14 0,-4.7 1.4,-9.2 4.2,-13 3.1,-4.1 7.2,-7.3 12,-9.3 5.7,-2.4 11.8,-3.5 18,-3.4 10.1,0 18.2,2.6 24.4,7.7 5.4,4.4 8.8,10.8 9.6,17.7 0.2,1.5 -0.9,3 -2.4,3.2 -0.1,0 -0.2,0 -0.4,0 h -12.9 c -1.3,0 -2.4,-0.9 -2.7,-2.2 -0.6,-2.9 -2.2,-5.5 -4.5,-7.3 -2.9,-2.4 -6.8,-3.6 -11.8,-3.6 -4.8,0 -8.6,0.9 -11.1,2.7 -2.6,1.7 -4.1,4.7 -3.9,7.8 0.1,2.2 1.1,4.2 2.8,5.6 1.8,1.6 3.8,2.8 6.1,3.6 2.5,0.9 6.1,2.1 11,3.5 5.4,1.3 10.7,3.1 15.9,5.2 4.1,1.8 7.8,4.4 10.7,7.8 3,3.5 4.6,8 4.7,13.7 0.1,4.8 -1.4,9.6 -4.2,13.6 -3,4.2 -7.1,7.4 -11.9,9.4 -5.7,2.4 -11.8,3.5 -18,3.4 -6.2,-0.1 -12.6,-1.4 -18.6,-3.9 z"
     id="path6" /><path
     class="st0"
     d="m 221.00357,86.3 c 0,3.3 0.8,5.7 2.3,7.2 1.6,1.4 4.2,2.2 8,2.2 h 8.5 c 1.6,0 2.8,1.3 2.8,2.8 v 9.7 c 0,1.6 -1.3,2.8 -2.8,2.8 h -11.7 c -8.3,0 -14.6,-1.9 -19,-5.8 -4.4,-3.9 -6.6,-10.2 -6.6,-18.9 V 39.9 c 0,-1.6 -1.3,-2.8 -2.8,-2.8 v 0 h -11.1 c -1.6,0 -2.8,-1.3 -2.8,-2.8 v 0 -9.4 c 0,-1.6 1.3,-2.8 2.8,-2.8 h 11.1 c 1.6,0 2.8,-1.2 2.8,-2.8 v 0 -16.4 c 0,-1.6 1.3,-2.8 2.8,-2.8 h 12.9 c 1.6,0 2.8,1.3 2.8,2.8 z"
     id="path8" /><path
     class="st0"
     d="m 326.90357,25 c 5.5,2.9 10.1,7.4 13,12.9 3.1,5.7 4.7,12.6 4.7,20.7 v 49.6 c 0,1.6 -1.3,2.8 -2.8,2.8 v 0 h -12.6 c -1.6,0 -2.8,-1.3 -2.8,-2.8 V 61.3 c 0,-8 -2,-14.1 -6,-18.3 -4,-4.2 -9.4,-6.4 -16.2,-6.4 -6.9,0 -12.3,2.1 -16.4,6.4 -4.1,4.3 -6,10.3 -6,18.3 v 46.9 c 0,1.6 -1.3,2.8 -2.8,2.8 v 0 h -12.8 c -1.6,0 -2.8,-1.3 -2.8,-2.8 V 24.9 c 0,-1.6 1.3,-2.8 2.8,-2.8 h 12.8 c 1.6,0 2.8,1.2 2.8,2.8 v 0 7.3 c 3.1,-3.7 7.1,-6.7 11.5,-8.6 4.7,-2 9.8,-3.1 14.9,-3.1 6.4,0.1 12.9,1.6 18.7,4.5 z"
     id="path10" /><circle
     class="st1"
     cx="241.80357"
     cy="29.600002"
     r="11.6"
     id="circle12" /><path
     class="st0"
     d="m 439.10357,22.1 h -12.9 c -1.2,0 -2.2,0.7 -2.6,1.8 l -25.3,65.9 -24.3,-65.8 c -0.4,-1.1 -1.5,-1.8 -2.6,-1.8 h -14.4 c -1.6,0 -2.8,1.3 -2.8,2.8 0,0.4 0.1,0.7 0.2,1.1 l 33.5,85 c -0.3,1.4 -0.7,2.9 -1.2,4.2 -3.9,9.7 -11,17 -22.5,18.3 -1.5,0.2 -2.6,1.5 -2.6,3 0,1.2 -0.1,9.8 -0.1,11.9 0,2.1 1.1,2.9 3.1,2.9 1.4,0 2.8,-0.1 4.2,-0.3 16.1,-2.7 25,-11.1 30.5,-23.6 1.5,-3.4 2.6,-6.1 3.7,-8.9 l 38.8,-92.4 c 0.6,-1.4 -0.1,-3.1 -1.6,-3.7 -0.4,-0.3 -0.7,-0.4 -1.1,-0.4 z"
     id="path14" /></g>
</svg>
