<?xml version="1.0" encoding="UTF-8" standalone="no"?>
<svg
   xmlns:dc="http://purl.org/dc/elements/1.1/"
   xmlns:cc="http://creativecommons.org/ns#"
   xmlns:rdf="http://www.w3.org/1999/02/22-rdf-syntax-ns#"
   xmlns:svg="http://www.w3.org/2000/svg"
   xmlns="http://www.w3.org/2000/svg"
   xmlns:sodipodi="http://sodipodi.sourceforge.net/DTD/sodipodi-0.dtd"
   xmlns:inkscape="http://www.inkscape.org/namespaces/inkscape"
   width="343.41299"
   height="74.666"
   viewBox="0 0 343.41299 74.666"
   fill="none"
   version="1.1"
   id="svg26"
   sodipodi:docname="element.svg"
   inkscape:version="1.0.1 (3bc2e813f5, 2020-09-07, custom)">
  <metadata
     id="metadata32">
    <rdf:RDF>
      <cc:Work
         rdf:about="">
        <dc:format>image/svg+xml</dc:format>
        <dc:type
           rdf:resource="http://purl.org/dc/dcmitype/StillImage" />
        <dc:title></dc:title>
      </cc:Work>
    </rdf:RDF>
  </metadata>
  <defs
     id="defs30" />
  <sodipodi:namedview
     pagecolor="#ffffff"
     bordercolor="#666666"
     borderopacity="1"
     objecttolerance="10"
     gridtolerance="10"
     guidetolerance="10"
     inkscape:pageopacity="0"
     inkscape:pageshadow="2"
     inkscape:window-width="1593"
     inkscape:window-height="868"
     id="namedview28"
     showgrid="false"
     fit-margin-top="0"
     fit-margin-left="0"
     fit-margin-right="0"
     fit-margin-bottom="0"
     inkscape:zoom="1.7951235"
     inkscape:cx="171.5"
     inkscape:cy="37"
     inkscape:window-x="0"
     inkscape:window-y="27"
     inkscape:window-maximized="0"
     inkscape:current-layer="svg26" />
  <path
     fill-rule="evenodd"
     clip-rule="evenodd"
     d="m 37.333,74.666 c 20.619,0 37.333,-16.714 37.333,-37.333 C 74.666,16.715 57.952,0 37.333,0 16.7146,0 0,16.715 0,37.333 0,57.952 16.7146,74.666 37.333,74.666 Z"
     fill="#0dbd8b"
     id="path2" />
  <path
     fill-rule="evenodd"
     clip-rule="evenodd"
     d="m 30.5078,17.395 c 0,-1.507 1.2242,-2.728 2.7343,-2.728 10.2349,0 18.5319,8.28 18.5319,18.493 0,1.507 -1.224,2.729 -2.734,2.729 -1.51,0 -2.734,-1.222 -2.734,-2.729 0,-7.2 -5.849,-13.036 -13.0639,-13.036 -1.5101,0 -2.7343,-1.222 -2.7343,-2.729 z"
     fill="#ffffff"
     id="path4" />
  <path
     fill-rule="evenodd"
     clip-rule="evenodd"
     d="m 57.266,30.432 c 1.51,0 2.734,1.221 2.734,2.728 0,10.214 -8.297,18.494 -18.532,18.494 -1.51,0 -2.734,-1.222 -2.734,-2.729 0,-1.507 1.224,-2.728 2.734,-2.728 7.215,0 13.064,-5.837 13.064,-13.037 0,-1.507 1.224,-2.728 2.734,-2.728 z"
     fill="#ffffff"
     id="path6" />
  <path
     fill-rule="evenodd"
     clip-rule="evenodd"
     d="M 44.202,57.271 C 44.202,58.778 42.978,60 41.468,60 31.2329,60 22.9358,51.72 22.9358,41.506 c 0,-1.507 1.2242,-2.729 2.7343,-2.729 1.5101,0 2.7342,1.222 2.7342,2.729 0,7.2 5.8487,13.037 13.0637,13.037 1.51,0 2.734,1.221 2.734,2.728 z"
     fill="#ffffff"
     id="path8" />
  <path
     fill-rule="evenodd"
     clip-rule="evenodd"
     d="m 17.401,44.235 c -1.5101,0 -2.7342,-1.222 -2.7342,-2.729 0,-10.214 8.2971,-18.493 18.532,-18.493 1.5102,0 2.7342,1.221 2.7342,2.728 0,1.507 -1.224,2.729 -2.7342,2.729 -7.2148,0 -13.0635,5.836 -13.0635,13.036 0,1.507 -1.2242,2.729 -2.7343,2.729 z"
     fill="#ffffff"
     id="path10" />
  <path
     d="M 131.333,42.333 H 105 c 0.311,2.756 1.311,4.956 3,6.6 1.689,1.6 3.911,2.4 6.666,2.4 1.823,0 3.467,-0.444 4.934,-1.333 1.466,-0.889 2.511,-2.089 3.133,-3.6 h 8 c -1.067,3.511 -3.067,6.355 -6,8.533 -2.889,2.133 -6.311,3.2 -10.267,3.2 -5.155,0 -9.333,-1.711 -12.533,-5.133 C 98.777,49.578 97.2,45.244 97.2,40 c 0,-5.111 1.6,-9.4 4.8,-12.867 3.2,-3.466 7.333,-5.2 12.4,-5.2 5.066,0 9.155,1.711 12.266,5.134 3.156,3.377 4.734,7.644 4.734,12.8 z M 114.4,28.4 c -2.489,0 -4.556,0.733 -6.2,2.2 -1.645,1.467 -2.667,3.422 -3.067,5.867 h 18.4 c -0.356,-2.445 -1.333,-4.4 -2.933,-5.867 -1.6,-1.467 -3.667,-2.2 -6.2,-2.2 z"
     fill="#000000"
     id="path12" />
  <path
     d="M 136.859,47 V 7.333 h 7.933 v 39.8 c 0,1.778 0.978,2.667 2.934,2.667 l 1.4,-0.067 v 7.533 c -0.756,0.134 -1.556,0.2 -2.4,0.2 -3.423,0 -5.934,-0.866 -7.534,-2.6 -1.555,-1.733 -2.333,-4.355 -2.333,-7.866 z"
     fill="#000000"
     id="path14" />
  <path
     d="m 186.072,42.333 h -26.333 c 0.311,2.756 1.311,4.956 3,6.6 1.689,1.6 3.911,2.4 6.667,2.4 1.822,0 3.466,-0.444 4.933,-1.333 1.467,-0.889 2.511,-2.089 3.133,-3.6 h 8 c -1.066,3.511 -3.066,6.355 -6,8.533 -2.889,2.133 -6.311,3.2 -10.266,3.2 -5.156,0 -9.334,-1.711 -12.534,-5.133 -3.155,-3.422 -4.733,-7.756 -4.733,-13 0,-5.111 1.6,-9.4 4.8,-12.867 3.2,-3.466 7.333,-5.2 12.4,-5.2 5.067,0 9.156,1.711 12.267,5.134 3.155,3.377 4.733,7.644 4.733,12.8 z M 169.139,28.4 c -2.489,0 -4.556,0.733 -6.2,2.2 -1.644,1.467 -2.667,3.422 -3.067,5.867 h 18.4 c -0.355,-2.445 -1.333,-4.4 -2.933,-5.867 -1.6,-1.467 -3.667,-2.2 -6.2,-2.2 z"
     fill="#000000"
     id="path16" />
  <path
     d="m 221.865,37.467 v 19.866 h -7.933 V 36.6 c 0,-5.245 -2.178,-7.867 -6.534,-7.867 -2.355,0 -4.244,0.756 -5.666,2.267 -1.378,1.511 -2.067,3.578 -2.067,6.2 v 20.133 h -7.933 v -34.6 h 7.333 v 4.6 c 0.844,-1.555 2.133,-2.844 3.867,-3.866 1.733,-1.023 3.888,-1.534 6.466,-1.534 4.8,0 8.267,1.822 10.4,5.467 2.934,-3.645 6.845,-5.467 11.734,-5.467 4.044,0 7.155,1.267 9.333,3.8 2.178,2.489 3.266,5.778 3.266,9.867 v 21.733 h -7.933 V 36.6 c 0,-5.245 -2.178,-7.867 -6.533,-7.867 -2.4,0 -4.311,0.778 -5.733,2.334 -1.378,1.511 -2.067,3.644 -2.067,6.4 z"
     fill="#000000"
     id="path18" />
  <path
     d="m 283.585,42.333 h -26.333 c 0.311,2.756 1.311,4.956 3,6.6 1.689,1.6 3.911,2.4 6.666,2.4 1.823,0 3.467,-0.444 4.934,-1.333 1.466,-0.889 2.511,-2.089 3.133,-3.6 h 8 c -1.067,3.511 -3.067,6.355 -6,8.533 -2.889,2.133 -6.311,3.2 -10.267,3.2 -5.155,0 -9.333,-1.711 -12.533,-5.133 -3.155,-3.422 -4.733,-7.756 -4.733,-13 0,-5.111 1.6,-9.4 4.8,-12.867 3.2,-3.466 7.333,-5.2 12.4,-5.2 5.066,0 9.155,1.711 12.266,5.134 3.156,3.377 4.734,7.644 4.734,12.8 z M 266.652,28.4 c -2.489,0 -4.556,0.733 -6.2,2.2 -1.645,1.467 -2.667,3.422 -3.067,5.867 h 18.4 c -0.356,-2.445 -1.333,-4.4 -2.933,-5.867 -1.6,-1.467 -3.667,-2.2 -6.2,-2.2 z"
     fill="#000000"
     id="path20" />
  <path
     d="m 296.578,22.733 v 4.6 c 0.8,-1.511 2.111,-2.778 3.933,-3.8 1.867,-1.066 4.111,-1.6 6.733,-1.6 4.089,0 7.245,1.245 9.467,3.734 2.267,2.488 3.4,5.8 3.4,9.933 v 21.733 h -7.933 V 36.6 c 0,-2.445 -0.578,-4.356 -1.734,-5.733 -1.111,-1.423 -2.822,-2.134 -5.133,-2.134 -2.533,0 -4.533,0.756 -6,2.267 -1.422,1.511 -2.133,3.6 -2.133,6.267 v 20.066 h -7.934 v -34.6 z"
     fill="#000000"
     id="path22" />
  <path
     d="m 343.28,50.266 v 6.867 c -0.978,0.267 -2.355,0.4 -4.133,0.4 -6.756,0 -10.134,-3.4 -10.134,-10.2 V 29.067 h -5.266 v -6.334 h 5.266 v -9 h 7.934 v 9 h 6.466 v 6.334 h -6.466 v 17.466 c 0,2.711 1.289,4.067 3.866,4.067 z"
     fill="#000000"
     id="path24" />
</svg>
