<?xml version="1.0" encoding="UTF-8" standalone="no"?>
<svg
   xmlns:dc="http://purl.org/dc/elements/1.1/"
   xmlns:cc="http://creativecommons.org/ns#"
   xmlns:rdf="http://www.w3.org/1999/02/22-rdf-syntax-ns#"
   xmlns:svg="http://www.w3.org/2000/svg"
   xmlns="http://www.w3.org/2000/svg"
   id="svg1208"
   version="1.1"
   viewBox="0 0 94.23502 32.925308"
   height="32.925308mm"
   width="94.235023mm">
  <defs
     id="defs1202" />
  <metadata
     id="metadata1205">
    <rdf:RDF>
      <cc:Work
         rdf:about="">
        <dc:format>image/svg+xml</dc:format>
        <dc:type
           rdf:resource="http://purl.org/dc/dcmitype/StillImage" />
        <dc:title></dc:title>
      </cc:Work>
    </rdf:RDF>
  </metadata>
  <g
     transform="translate(-20.764685,-79.471066)"
     id="layer1">
    <g
       transform="matrix(0.35277777,0,0,-0.35277777,56.913441,94.21972)"
       id="g1068">
      <path
         id="path1070"
         style="fill:#1e3047;fill-opacity:1;fill-rule:nonzero;stroke:none"
         d="M 0,0 V 21.542 H 10.901 V 19.278 H 2.782 v -7.505 h 7.44 V 9.51 H 2.782 V 0 Z" />
    </g>
    <g
       transform="matrix(0.35277777,0,0,-0.35277777,64.695737,91.835012)"
       id="g1072">
      <path
         id="path1074"
         style="fill:#1e3047;fill-opacity:1;fill-rule:nonzero;stroke:none"
         d="m 0,0 c -0.906,0.291 -2.652,0.68 -4.27,0.68 -2.167,0 -2.716,-1.035 -2.716,-2.814 0,-1.973 0.646,-2.912 2.523,-2.912 1.94,0 3.557,0.744 4.463,1.359 z M 2.718,-6.76 H 0.421 l -0.162,1.326 c -0.905,-0.711 -3.105,-1.649 -5.11,-1.649 -3.429,0 -4.788,2.005 -4.788,5.013 0,3.17 1.585,4.82 4.982,4.82 2.005,0 3.784,-0.518 4.657,-0.906 v 2.458 c 0,2.07 -0.646,2.943 -3.04,2.943 -1.423,0 -2.846,-0.193 -4.27,-0.614 l -0.42,2.232 c 1.39,0.452 3.332,0.744 4.981,0.744 3.72,0 5.467,-1.618 5.467,-5.143 z" />
    </g>
    <g
       transform="matrix(0.35277777,0,0,-0.35277777,70.538345,88.685623)"
       id="g1076">
      <path
         id="path1078"
         style="fill:#1e3047;fill-opacity:1;fill-rule:nonzero;stroke:none"
         d="m 0,0 -0.356,-2.102 c -0.873,0.291 -2.296,0.582 -3.396,0.582 -3.623,0 -3.913,-2.361 -3.913,-6.145 0,-3.785 0.29,-6.146 3.913,-6.146 1.1,0 2.523,0.291 3.396,0.582 L 0,-15.331 c -0.906,-0.356 -2.393,-0.679 -3.817,-0.679 -5.239,0 -6.566,3.396 -6.566,8.345 0,4.948 1.327,8.344 6.566,8.344 C -2.393,0.679 -0.906,0.356 0,0" />
    </g>
    <g
       transform="matrix(0.35277777,0,0,-0.35277777,72.387069,91.059042)"
       id="g1080">
      <path
         id="path1082"
         style="fill:#1e3047;fill-opacity:1;fill-rule:nonzero;stroke:none"
         d="M 0,0 H 7.277 V 0.582 C 7.277,3.558 6.339,5.369 3.686,5.369 0.679,5.369 0.032,3.203 0,0 m 0,-2.135 c 0.161,-3.396 1.002,-5.013 4.269,-5.013 1.715,0 3.493,0.42 4.722,0.906 l 0.421,-2.07 C 8.086,-8.863 5.984,-9.283 4.237,-9.283 c -5.79,0 -6.955,3.946 -6.955,8.442 0,4.625 1.521,8.248 6.437,8.248 4.367,0 6.178,-3.073 6.178,-6.922 v -2.62 z" />
    </g>
    <g
       transform="matrix(0.35277777,0,0,-0.35277777,78.183216,92.998755)"
       id="g1084">
      <path
         id="path1086"
         style="fill:#1e3047;fill-opacity:1;fill-rule:nonzero;stroke:none"
         d="m 0,0 c 1.23,-1.068 2.556,-1.585 3.784,-1.585 3.074,0 3.656,2.394 3.656,6.113 0,3.558 -0.679,6.21 -3.785,6.21 C 2.006,10.738 0.971,10.091 0,9.315 Z m 4.205,-3.784 c -1.812,0 -3.526,0.873 -4.399,1.94 L -0.42,-3.461 H -2.717 V 19.375 H 0 v -8.087 c 0.777,0.809 2.329,1.65 4.011,1.65 4.528,0 6.146,-3.364 6.146,-8.377 0,-4.691 -1.359,-8.345 -5.952,-8.345" />
    </g>
    <g
       transform="matrix(0.35277777,0,0,-0.35277777,85.132762,89.221809)"
       id="g1088">
      <path
         id="path1090"
         style="fill:#1e3047;fill-opacity:1;fill-rule:nonzero;stroke:none"
         d="m 0,0 c -3.363,0 -4.042,-2.75 -4.042,-6.146 0,-3.396 0.679,-6.146 4.042,-6.146 3.364,0 4.043,2.75 4.043,6.146 C 4.043,-2.75 3.364,0 0,0 m 0,-14.491 c -4.657,0 -6.76,3.494 -6.76,8.345 0,4.852 2.103,8.345 6.76,8.345 4.658,0 6.761,-3.493 6.761,-8.345 0,-4.851 -2.103,-8.345 -6.761,-8.345" />
    </g>
    <g
       transform="matrix(0.35277777,0,0,-0.35277777,90.860912,89.221809)"
       id="g1092">
      <path
         id="path1094"
         style="fill:#1e3047;fill-opacity:1;fill-rule:nonzero;stroke:none"
         d="m 0,0 c -3.363,0 -4.042,-2.75 -4.042,-6.146 0,-3.396 0.679,-6.146 4.042,-6.146 3.364,0 4.043,2.75 4.043,6.146 C 4.043,-2.75 3.364,0 0,0 m 0,-14.491 c -4.657,0 -6.76,3.494 -6.76,8.345 0,4.852 2.103,8.345 6.76,8.345 4.658,0 6.761,-3.493 6.761,-8.345 0,-4.851 -2.103,-8.345 -6.761,-8.345" />
    </g>
    <g
       transform="matrix(0.35277777,0,0,-0.35277777,94.581059,94.21972)"
       id="g1096">
      <path
         id="path1098"
         style="fill:#1e3047;fill-opacity:1;fill-rule:nonzero;stroke:none"
         d="m 0,0 v 22.836 h 2.717 v -14.2 l 5.596,7.407 h 3.169 L 5.336,8.119 11.741,0 H 8.539 L 2.717,7.601 V 0 Z" />
    </g>
    <g
       transform="matrix(0.35277777,0,0,-0.35277777,59.402483,98.143843)"
       id="g1100">
      <path
         id="path1102"
         style="fill:#1e3047;fill-opacity:1;fill-rule:nonzero;stroke:none"
         d="m 0,0 c -4.593,0 -5.563,-3.461 -5.563,-8.895 0,-5.434 0.97,-8.895 5.563,-8.895 4.593,0 5.564,3.461 5.564,8.895 C 5.564,-3.461 4.593,0 0,0 m -8.345,-8.895 c 0,6.534 2.167,11.159 8.345,11.159 6.179,0 8.346,-4.625 8.346,-11.159 0,-6.534 -2.167,-11.159 -8.346,-11.159 -6.178,0 -8.345,4.625 -8.345,11.159" />
    </g>
    <g
       transform="matrix(0.35277777,0,0,-0.35277777,64.73172,103.98605)"
       id="g1104">
      <path
         id="path1106"
         style="fill:#1e3047;fill-opacity:1;fill-rule:nonzero;stroke:none"
         d="m 0,0 c 0.809,-0.647 2.103,-1.261 3.623,-1.261 3.138,0 3.817,2.458 3.817,6.21 0,3.752 -0.582,6.113 -3.623,6.113 C 2.2,11.062 0.906,10.286 0,9.477 Z m 4.011,-3.461 c -1.682,0 -3.234,0.679 -4.011,1.326 v -6.792 h -2.717 v 21.865 h 2.297 l 0.226,-1.617 c 0.745,1.035 2.49,1.94 4.399,1.94 4.723,0 5.952,-3.816 5.952,-8.344 0,-5.047 -1.682,-8.378 -6.146,-8.378" />
    </g>
    <g
       transform="matrix(0.35277777,0,0,-0.35277777,70.231852,101.92079)"
       id="g1108">
      <path
         id="path1110"
         style="fill:#1e3047;fill-opacity:1;fill-rule:nonzero;stroke:none"
         d="M 0,0 H 7.277 V 0.582 C 7.277,3.558 6.339,5.37 3.687,5.37 0.679,5.37 0.032,3.203 0,0 m 0,-2.135 c 0.161,-3.396 1.002,-5.013 4.269,-5.013 1.715,0 3.493,0.42 4.722,0.906 l 0.421,-2.07 C 8.086,-8.863 5.984,-9.283 4.237,-9.283 c -5.79,0 -6.955,3.946 -6.955,8.442 0,4.625 1.521,8.248 6.437,8.248 4.367,0 6.179,-3.073 6.179,-6.922 v -2.62 z" />
    </g>
    <g
       transform="matrix(0.35277777,0,0,-0.35277777,78.401974,105.08146)"
       id="g1112">
      <path
         id="path1114"
         style="fill:#1e3047;fill-opacity:1;fill-rule:nonzero;stroke:none"
         d="m 0,0 v 11.677 c 0,1.455 -0.615,2.199 -2.2,2.199 -1.681,0 -3.364,-0.55 -4.528,-1.068 V 0 h -2.717 v 16.043 h 2.2 l 0.226,-1.423 c 1.294,0.873 3.332,1.746 5.499,1.746 2.749,0 4.237,-1.552 4.237,-4.398 L 2.717,0 Z" />
    </g>
    <g
       transform="matrix(0.35277777,0,0,-0.35277777,85.282807,105.21838)"
       id="g1116">
      <path
         id="path1118"
         style="fill:#1e3047;fill-opacity:1;fill-rule:nonzero;stroke:none"
         d="m 0,0 c -1.811,0 -4.56,0.453 -5.951,1.132 l 0.452,2.232 c 1.424,-0.583 3.365,-1.132 5.402,-1.132 3.008,0 4.432,1.067 4.432,3.526 0,2.554 -1.165,3.396 -4.496,4.398 -3.947,1.197 -5.952,2.491 -5.952,6.21 0,4.044 2.102,5.952 6.728,5.952 1.973,0 3.817,-0.356 5.208,-0.938 L 5.369,19.213 c -1.293,0.453 -3.007,0.873 -4.657,0.873 -3.202,0 -4.076,-1.099 -4.076,-3.558 0,-2.523 0.808,-2.879 3.849,-3.914 C 4.496,11.256 7.084,10.253 7.084,6.113 7.084,1.941 4.27,0 0,0" />
    </g>
    <g
       transform="matrix(0.35277777,0,0,-0.35277777,91.102371,100.08356)"
       id="g1120">
      <path
         id="path1122"
         style="fill:#1e3047;fill-opacity:1;fill-rule:nonzero;stroke:none"
         d="m 0,0 c -3.363,0 -4.042,-2.75 -4.042,-6.146 0,-3.396 0.679,-6.146 4.042,-6.146 3.364,0 4.043,2.75 4.043,6.146 C 4.043,-2.75 3.364,0 0,0 m 0,-14.491 c -4.657,0 -6.76,3.494 -6.76,8.345 0,4.852 2.103,8.345 6.76,8.345 4.658,0 6.761,-3.493 6.761,-8.345 0,-4.851 -2.103,-8.345 -6.761,-8.345" />
    </g>
    <g
       transform="matrix(0.35277777,0,0,-0.35277777,95.724006,99.421815)"
       id="g1124">
      <path
         id="path1126"
         style="fill:#1e3047;fill-opacity:1;fill-rule:nonzero;stroke:none"
         d="m 0,0 v -11.677 c 0,-1.455 0.614,-2.199 2.2,-2.199 1.616,0 3.266,0.55 4.398,1.068 V 0 H 9.315 V -16.043 H 7.116 l -0.227,1.423 c -1.261,-0.873 -3.267,-1.746 -5.37,-1.746 -2.749,0 -4.237,1.552 -4.237,4.398 V 0 Z" />
    </g>
    <g
       transform="matrix(0.35277777,0,0,-0.35277777,103.4491,100.22064)"
       id="g1128">
      <path
         id="path1130"
         style="fill:#1e3047;fill-opacity:1;fill-rule:nonzero;stroke:none"
         d="M 0,0 C -1.812,-0.355 -3.656,-0.97 -5.014,-1.682 V -13.779 H -7.731 V 2.264 H -5.5 l 0.292,-1.875 c 0.971,0.97 2.749,1.907 4.852,2.102 z" />
    </g>
    <g
       transform="matrix(0.35277777,0,0,-0.35277777,107.65952,99.54737)"
       id="g1132">
      <path
         id="path1134"
         style="fill:#1e3047;fill-opacity:1;fill-rule:nonzero;stroke:none"
         d="m 0,0 -0.356,-2.102 c -0.873,0.291 -2.296,0.582 -3.396,0.582 -3.623,0 -3.913,-2.361 -3.913,-6.145 0,-3.785 0.29,-6.146 3.913,-6.146 1.1,0 2.523,0.291 3.396,0.582 L 0,-15.331 c -0.906,-0.356 -2.393,-0.679 -3.817,-0.679 -5.239,0 -6.566,3.396 -6.566,8.345 0,4.948 1.327,8.344 6.566,8.344 C -2.393,0.679 -0.906,0.356 0,0" />
    </g>
    <g
       transform="matrix(0.35277777,0,0,-0.35277777,109.50827,101.92079)"
       id="g1136">
      <path
         id="path1138"
         style="fill:#1e3047;fill-opacity:1;fill-rule:nonzero;stroke:none"
         d="M 0,0 H 7.277 V 0.582 C 7.277,3.558 6.339,5.37 3.686,5.37 0.679,5.37 0.032,3.203 0,0 m 0,-2.135 c 0.161,-3.396 1.002,-5.013 4.269,-5.013 1.715,0 3.493,0.42 4.722,0.906 l 0.421,-2.07 C 8.086,-8.863 5.984,-9.283 4.237,-9.283 c -5.79,0 -6.955,3.946 -6.955,8.442 0,4.625 1.521,8.248 6.437,8.248 4.367,0 6.178,-3.073 6.178,-6.922 v -2.62 z" />
    </g>
    <g
       transform="matrix(0.35277777,0,0,-0.35277777,24.078782,102.40631)"
       id="g1140">
      <path
         id="path1142"
         style="fill:#1e3047;fill-opacity:1;fill-rule:nonzero;stroke:none"
         d="M 0,0 31.778,-18.348 63.556,-0.001 V 36.695 L 31.778,55.043 0,36.695 Z M 31.778,-22.649 -3.725,-2.151 V 38.846 L 31.778,59.344 67.281,38.845 V -2.151 Z" />
    </g>
    <g
       transform="matrix(0.35277777,0,0,-0.35277777,35.289046,88.83252)"
       id="g1144">
      <path
         id="path1146"
         style="fill:#4767aa;fill-opacity:1;fill-rule:nonzero;stroke:none"
         d="m 0,0 c -1.142,0 -2.227,-0.248 -2.977,-0.681 l -12.368,-7.141 c -1.586,-0.916 -2.977,-3.325 -2.977,-5.156 v -14.283 c 0,-1.831 1.391,-4.241 2.977,-5.156 l 12.368,-7.142 c 1.5,-0.866 4.454,-0.866 5.954,0 l 12.368,7.141 c 1.586,0.916 2.977,3.325 2.977,5.156 v 14.283 c 0,1.831 -1.391,4.241 -2.977,5.156 L 2.977,-0.681 C 2.227,-0.248 1.142,0 0,0 m 0,-43.965 c -1.802,0 -3.521,0.419 -4.839,1.18 l -12.369,7.142 c -2.714,1.566 -4.839,5.248 -4.839,8.382 v 14.283 c 0,3.133 2.125,6.815 4.839,8.382 l 12.369,7.141 c 1.318,0.761 3.037,1.18 4.839,1.18 1.802,0 3.521,-0.419 4.839,-1.18 l 12.369,-7.142 c 2.714,-1.567 4.839,-5.248 4.839,-8.382 v -14.283 c 0,-3.133 -2.125,-6.815 -4.839,-8.382 L 4.839,-42.785 C 3.521,-43.546 1.802,-43.965 0,-43.965" />
    </g>
    <g
       transform="matrix(0.35277777,0,0,-0.35277777,35.289152,93.799808)"
       id="g1148">
      <path
         id="path1150"
         style="fill:#00ceff;fill-opacity:1;fill-rule:nonzero;stroke:none"
         d="m 0,0 c -3.342,0 -6.062,-2.719 -6.062,-6.062 0,-3.342 2.72,-6.061 6.062,-6.061 3.342,0 6.062,2.719 6.062,6.061 C 6.062,-2.719 3.342,0 0,0 m 0,-15.848 c -5.396,0 -9.787,4.39 -9.787,9.786 0,5.397 4.391,9.787 9.787,9.787 5.396,0 9.787,-4.39 9.787,-9.787 0,-5.396 -4.391,-9.786 -9.787,-9.786" />
    </g>
  </g>
</svg>
