<?xml version="1.0" encoding="UTF-8"?>
<svg id="Layer_2" data-name="Layer 2" xmlns="http://www.w3.org/2000/svg" viewBox="0 0 903.39 147.75">
  <defs>
    <style>
      .cls-1 {
        fill: #ff671d;
      }
    </style>
  </defs>
  <g id="Layer_1-2" data-name="Layer 1">
    <g>
      <path d="M255.43,79.52c-1,25.76-21.31,46-46.6,46-26.72,0-46.44-21.63-46.44-47.71.07-26.35,21.36-47.72,47.71-47.88,11.77,0,23.38,5.08,33.24,14.15l-7.63,9.38c-7.48-6.52-16.54-11-25.61-11-19.36.07-35.01,15.79-35,35.15,0,19.72,14.79,35,33.88,35,17,0,30.38-12.41,33.08-28.47h-38.64v-11.14h52.17l-.16,6.52Z"/>
      <path d="M299.81,73.32h-7.16c-7.85.03-14.19,6.43-14.16,14.28,0,.01,0,.02,0,.03v37.06h-12.72v-63.62h10.5v5.41c3.5-3.5,8.9-5.41,15-5.41h13.67l-5.13,12.25Z"/>
      <path d="M369.15,124.69h-10.82v-8c-9.18,9.12-23.05,11.6-34.83,6.24-16.61-7.14-24.29-26.39-17.15-43.01,5.18-12.05,17.04-19.84,30.15-19.81,8.18.02,16.01,3.28,21.79,9.06v-8h11l-.14,63.52ZM356.15,97.49c2.65-10.78-3.94-21.67-14.72-24.32-10.78-2.65-21.67,3.94-24.32,14.72-2.65,10.78,3.94,21.67,14.72,24.32,2.7.66,5.52.76,8.26.28,7.85-1.37,14.14-7.26,16.01-15h.05Z"/>
      <path d="M394.76,57.57v3.5h20.24v11.13h-20.2v52.33h-12.61V57.73c0-14,10-22.27,22.58-22.27h15.23l-5,11.93h-10.23c-5.5.22-9.88,4.68-10.01,10.18Z"/>
      <path d="M482.23,124.69h-10.81v-8c-9.19,9.1-23.06,11.57-34.83,6.2-16.61-7.14-24.29-26.39-17.15-43.01,5.18-12.05,17.04-19.84,30.15-19.81,8.18.02,16.01,3.28,21.79,9.06v-8h11l-.15,63.56ZM469.35,97.49c2.59-10.74-4.02-21.54-14.76-24.13-10.74-2.59-21.54,4.02-24.13,14.76s4.02,21.54,14.76,24.13c2.69.65,5.49.73,8.22.24,7.81-1.4,14.05-7.29,15.91-15Z"/>
      <path d="M550.15,86.99v37.7h-12.73v-37.7c-.21-7.91-6.79-14.15-14.69-13.94-7.61.2-13.74,6.32-13.94,13.94v37.7h-12.72v-63.62h10.5v5.57c4.67-4.19,10.72-6.52,17-6.52,14.67,0,26.58,11.88,26.58,26.56,0,.1,0,.21,0,.31Z"/>
      <path d="M624.9,124.69h-10.82v-8c-9.19,9.1-23.06,11.57-34.83,6.2-16.61-7.14-24.29-26.39-17.15-43.01,5.18-12.05,17.04-19.84,30.15-19.81,8.18.02,16.01,3.28,21.79,9.06v-8h11l-.14,63.56ZM611.9,97.49c2.57-10.74-4.05-21.54-14.79-24.11-10.74-2.57-21.54,4.05-24.11,14.79-.36,1.49-.54,3.01-.55,4.54-.06,11.05,8.84,20.05,19.89,20.11,9.29.05,17.4-6.3,19.56-15.34Z"/>
      <path d="M711.74,124.68h-47.88V30.05h12.73v81.75h35.15v12.88Z"/>
      <path d="M779.81,124.69h-10.81v-8.11c-5.82,5.81-13.71,9.07-21.94,9.06-18.23,0-33-14.77-33-33s14.77-33,33-33c8.18,0,16.03,3.26,21.79,9.06v-8.11h11l-.04,64.1ZM767.25,92.56c-.04-11.11-9.09-20.08-20.2-20.04-11.11.04-20.08,9.09-20.04,20.2.04,11.05,8.99,20,20.04,20.04,11.1.06,20.14-8.9,20.2-20,0-.07,0-.13,0-.2Z"/>
      <path d="M856.31,92.72c-.04,18.16-14.76,32.88-32.92,32.92-8.28.01-16.22-3.25-22.11-9.07v8.12h-10.65V35.14h12.72v32.13c5.55-4.96,12.75-7.68,20.2-7.63,18.14.18,32.76,14.93,32.76,33.08ZM843.31,92.72c.07-11.05-8.83-20.05-19.88-20.12-11.05-.07-20.05,8.83-20.12,19.88s8.83,20.05,19.88,20.12c.04,0,.08,0,.12,0,10.98-.02,19.89-8.9,19.96-19.88h.04Z"/>
      <path d="M900.05,65.37l-5.56,9.38c-2.71-1.59-7.32-4.29-12.41-4.29-4.77,0-9.23,2.38-9.23,6.36,0,4.29,4.93,6,11.3,8.27,10.18,3.5,19.24,10.5,19.24,21s-9.06,19.57-22.11,19.57c-7.95,0-15.9-3.18-21.15-6.52l4.93-10.66c3.66,2.23,10.66,4.93,15.9,4.93,6.37,0,9.23-3.82,9.23-7.47,0-4.3-4-6.84-12.72-10.18-6.37-2.55-16.71-6.84-16.71-18.14,0-10.65,9.07-17.81,21.16-17.81,7-.01,12.88,2.38,18.13,5.56Z"/>
      <path class="cls-1" d="M135.83,65.05c-.21-2.85-.69-5.67-1.43-8.43-.93-3.51-2.21-6.92-3.82-10.18-1.94-3.89-4.34-7.52-7.16-10.82-1.19-1.45-2.46-2.83-3.82-4.13,2.07-8.27-2.54-15.43-2.54-15.43-5.29-.43-10.56.91-15,3.82-.3-.18-.65-.29-1-.32-1.3-.61-2.66-1.09-4.06-1.43-1.43-.32-2.86-.8-4.45-1.27-1.44-.32-3-.64-4.62-1-.31,0-.47-.16-.79-.16-2.26-6.75-7.04-12.38-13.34-15.7-11.14,7-13.2,16.86-13.2,16.86-.03.22-.08.43-.16.63l-1.91.44c-.8.32-1.75.64-2.55.95s-1.74.64-2.54,1c-1.59.63-3.34,1.59-4.93,2.38-1.59,1-3.18,1.91-4.61,2.87-.08-.09-.2-.15-.32-.16-15.43-5.89-29.11,1.11-29.11,1.11-1.27,16.38,6.21,26.72,7.64,28.47-.32,1-.64,2.07-1,3-1.11,3.75-1.96,7.58-2.54,11.45,0,.48-.16,1.12-.16,1.75C4.29,77.77,0,92.24,0,92.24c11.93,13.69,25.77,14.48,25.77,14.48,1.76,3.12,3.77,6.1,6,8.9.95,1.12,1.91,2.23,3,3.34-2.56,7.35-2.33,15.39.64,22.59,8.49.41,16.86-2.12,23.7-7.16,1.27.48,2.7.8,4,1.27,4.06,1.04,8.22,1.68,12.41,1.91h5.28c6.2,8.91,17.2,10.18,17.2,10.18,7.8-8.27,8.27-16.38,8.27-18.13v-.8c1.61-1.13,3.15-2.35,4.62-3.65,3.12-2.8,5.85-6.01,8.11-9.55.16-.31.47-.63.63-1,8.75.48,15-5.41,15-5.41-1.43-9.22-6.68-13.68-7.79-14.47h-.32c-.09,0-.16-.07-.16-.16h0c0-.48.16-1.11.16-1.59,0-1,.16-1.91.16-3v-3.79c.02-.28-.03-.55-.16-.8l-.16-.79-.16-.8c-.13-1.02-.34-2.02-.63-3-.96-3.92-2.5-7.68-4.57-11.15-2.05-3.31-4.57-6.31-7.48-8.91-2.79-2.49-5.95-4.51-9.38-6-3.25-1.56-6.75-2.53-10.34-2.86-1.75-.16-3.5-.32-5.25-.32h-2.82c-.91.03-1.82.13-2.71.32-3.43.61-6.72,1.85-9.7,3.65-2.8,1.73-5.32,3.88-7.47,6.37-2.01,2.39-3.62,5.1-4.78,8-1.09,2.74-1.73,5.64-1.9,8.59v4.13c.11,1.38.39,2.74.83,4.05.71,2.58,1.9,5.01,3.5,7.15,1.45,1.97,3.21,3.69,5.21,5.1,1.85,1.24,3.87,2.21,6,2.87,1.95.57,3.97.83,6,.79h2.7c.32,0,.48-.16.64-.16s.47-.16.63-.16c.48-.16.8-.16,1.27-.31l2.39-1c.74-.33,1.44-.76,2.07-1.27.16-.16.32-.32.47-.32.61-.44.75-1.29.31-1.9-.04-.06-.09-.12-.15-.17-.4-.6-1.21-.77-1.82-.37-.03.02-.06.04-.08.06-.16,0-.32.15-.48.31-.57.3-1.15.56-1.75.8l-1.91.48c-.32,0-.64.15-1,.15h-3c-1.54-.19-3.04-.62-4.45-1.27-1.5-.69-2.89-1.6-4.13-2.7-1.28-1.14-2.36-2.5-3.19-4-.84-1.6-1.43-3.31-1.74-5.09-.13-.89-.18-1.8-.16-2.7v-1.38c0-.48.16-1,.16-1.43.69-4.08,2.7-7.82,5.72-10.66.72-.73,1.52-1.37,2.39-1.91.84-.62,1.75-1.15,2.7-1.59.96-.46,1.97-.84,3-1.11,1.03-.31,2.1-.48,3.18-.48h3.52l3.5.48c2.3.47,4.49,1.33,6.5,2.54,4.19,2.38,7.61,5.92,9.86,10.18,1.12,2.14,1.88,4.45,2.23,6.84.13.57.18,1.16.16,1.75v3.82c0,.63-.16,1.27-.16,1.91-.03.64-.14,1.28-.32,1.9-.16.64-.32,1.28-.47,1.91-.36,1.3-.79,2.57-1.3,3.82-.98,2.48-2.26,4.83-3.81,7-4.78,6.54-11.91,10.97-19.89,12.37-1.33.19-2.66.29-4,.32h-2.05c-.75.03-1.49-.03-2.23-.16-2.85-.15-5.68-.63-8.42-1.43-2.76-.82-5.43-1.89-8-3.18-5.04-2.66-9.47-6.34-13-10.81-1.77-2.22-3.31-4.61-4.6-7.13-1.23-2.5-2.24-5.11-3-7.8-.8-2.69-1.28-5.47-1.43-8.27v-4.45c.02-1.37.11-2.73.28-4.09.16-1.44.48-2.87.64-4.3.23-1.4.54-2.78.95-4.13.76-2.67,1.72-5.27,2.87-7.8,2.12-4.82,5.14-9.19,8.9-12.88,1-1,1.91-1.75,2.87-2.54.93-.83,1.93-1.58,3-2.23.95-.64,2.07-1.27,3.18-1.91.5-.33,1.03-.6,1.59-.8.25-.14.51-.24.79-.31.16,0,.64-.32.8-.32,1.16-.51,2.35-.95,3.56-1.31.32-.16.64-.16,1-.32s.64-.16,1-.32l1.91-.48c.31,0,.63-.16,1-.16s.64-.15,1-.15.64-.16,1-.16h1c.32,0,.64-.16,1-.16.38.02.75-.04,1.11-.16.32,0,.8-.16,1.11-.16h8c2.35.1,4.69.36,7,.79,4.37.78,8.6,2.17,12.57,4.14,3.55,1.84,6.89,4.07,9.93,6.67l.47.48.48.47c.32.32.8.64,1.11,1l1,.95.95,1c1.28,1.43,2.39,2.7,3.5,4.13,1.93,2.58,3.69,5.29,5.25,8.11.16.16.16.32.32.48.12.13.18.3.16.48l.48.95.47,1c.19.3.3.65.32,1,.48,1.27,1,2.39,1.27,3.5.58,1.56,1.06,3.15,1.43,4.77.15.56.71.91,1.28.8.6.01,1.1-.47,1.11-1.07,0-.02,0-.03,0-.05.71-1.87.91-3.9.6-5.88Z"/>
    </g>
  </g>
</svg>