<?xml version="1.0" encoding="UTF-8" standalone="no"?>
<svg
   width="720"
   height="300"
   viewBox="0 0 720 300"
   version="1.1"
   id="svg349"
   xmlns="http://www.w3.org/2000/svg"
   xmlns:svg="http://www.w3.org/2000/svg">
  <defs
     id="defs346" />
  <g
     id="layer1">
    <g
       id="g598"
       transform="matrix(9.9473684,0,0,9.9473684,1.8947378,0.83921084)">
      <rect
         x="1.8"
         y="2.0999999"
         class="st0"
         width="4.96"
         height="4.96"
         id="rect4"
         style="fill:#00c7fd" />
      <path
         class="st1"
         d="M 6.63,27.9 V 10.06 H 1.93 V 27.9 Z m 31.15,0.18 v -4.37 c -0.69,0 -1.26,-0.04 -1.7,-0.11 -0.48,-0.08 -0.86,-0.24 -1.1,-0.49 -0.25,-0.25 -0.41,-0.61 -0.49,-1.07 -0.07,-0.44 -0.11,-1.02 -0.11,-1.72 v -6.24 h 3.4 v -4.02 h -3.4 V 3.11 h -4.7 v 17.24 c 0,1.45 0.13,2.69 0.38,3.68 0.25,0.97 0.67,1.77 1.25,2.37 0.58,0.6 1.36,1.03 2.29,1.29 0.95,0.26 2.15,0.39 3.58,0.39 z M 64.71,27.9 V 1.74 h -4.7 V 27.9 Z M 25.15,11.82 C 23.84,10.41 22,9.7 19.68,9.7 c -1.12,0 -2.16,0.23 -3.08,0.69 -0.92,0.46 -1.71,1.1 -2.33,1.9 l -0.26,0.33 v -0.3 -2.26 H 9.37 V 27.9 h 4.67 v -9.5 0.66 c 0,-0.11 0,-0.22 0,-0.32 0.05,-1.67 0.46,-2.91 1.24,-3.7 0.83,-0.84 1.83,-1.27 2.98,-1.27 1.36,0 2.39,0.42 3.08,1.23 0.67,0.8 1.01,1.95 1.02,3.42 v 0 0.04 c 0,0 0,0.01 0,0.01 v 0 9.43 H 27.1 V 17.77 c 0.01,-2.54 -0.65,-4.54 -1.95,-5.95 z m 32.41,7.12 c 0,-1.28 -0.23,-2.49 -0.68,-3.61 -0.45,-1.11 -1.09,-2.1 -1.89,-2.95 -0.8,-0.84 -1.78,-1.51 -2.91,-1.98 -1.12,-0.46 -2.38,-0.7 -3.73,-0.7 -1.28,0 -2.5,0.25 -3.62,0.73 -1.13,0.49 -2.12,1.15 -2.95,1.98 -0.83,0.83 -1.5,1.82 -1.98,2.95 -0.49,1.12 -0.73,2.34 -0.73,3.62 0,1.28 0.23,2.5 0.7,3.62 0.46,1.13 1.11,2.12 1.93,2.94 0.82,0.83 1.82,1.5 2.98,1.98 1.16,0.49 2.45,0.73 3.82,0.73 3.98,0 6.46,-1.81 7.94,-3.5 l -3.38,-2.58 c -0.71,0.85 -2.4,1.99 -4.52,1.99 -1.33,0 -2.42,-0.31 -3.24,-0.91 -0.83,-0.61 -1.4,-1.44 -1.7,-2.48 L 43.55,20.6 H 57.56 Z M 43.59,17.31 c 0,-1.31 1.5,-3.59 4.73,-3.59 3.23,0 4.73,2.28 4.73,3.58 z"
         id="path6"
         style="fill:#0054ae" />
      <path
         class="st1"
         d="m 70.06,25.65 c -0.09,-0.21 -0.22,-0.39 -0.37,-0.55 -0.16,-0.16 -0.34,-0.28 -0.55,-0.37 -0.21,-0.09 -0.44,-0.14 -0.68,-0.14 -0.24,0 -0.47,0.05 -0.68,0.14 -0.21,0.09 -0.39,0.22 -0.55,0.37 -0.16,0.16 -0.28,0.34 -0.37,0.55 -0.09,0.21 -0.14,0.44 -0.14,0.68 0,0.24 0.05,0.47 0.14,0.68 0.09,0.21 0.22,0.39 0.37,0.55 0.16,0.16 0.34,0.28 0.55,0.37 0.21,0.09 0.44,0.14 0.68,0.14 0.24,0 0.47,-0.05 0.68,-0.14 0.21,-0.09 0.39,-0.22 0.55,-0.37 0.16,-0.16 0.28,-0.34 0.37,-0.55 0.09,-0.21 0.14,-0.44 0.14,-0.68 0,-0.24 -0.05,-0.47 -0.14,-0.68 z m -0.28,1.23 c -0.07,0.17 -0.18,0.33 -0.31,0.46 -0.13,0.13 -0.28,0.23 -0.46,0.31 -0.17,0.07 -0.36,0.11 -0.56,0.11 -0.2,0 -0.38,-0.04 -0.56,-0.11 -0.17,-0.07 -0.33,-0.18 -0.46,-0.31 -0.13,-0.13 -0.23,-0.28 -0.31,-0.46 -0.07,-0.17 -0.11,-0.36 -0.11,-0.56 0,-0.2 0.04,-0.38 0.11,-0.56 0.07,-0.17 0.18,-0.33 0.31,-0.46 0.13,-0.13 0.28,-0.23 0.46,-0.31 0.17,-0.07 0.36,-0.11 0.56,-0.11 0.2,0 0.38,0.04 0.56,0.11 0.17,0.07 0.33,0.18 0.46,0.31 0.13,0.13 0.23,0.28 0.31,0.46 0.07,0.17 0.11,0.36 0.11,0.56 0,0.2 -0.04,0.39 -0.11,0.56 z m -0.99,-0.41 c 0.14,-0.02 0.25,-0.07 0.34,-0.15 0.09,-0.09 0.13,-0.22 0.13,-0.39 0,-0.19 -0.06,-0.34 -0.17,-0.44 -0.11,-0.1 -0.29,-0.15 -0.53,-0.15 h -0.77 v 1.99 h 0.36 v -0.81 h 0.27 l 0.5,0.81 h 0.38 z m -0.2,-0.29 c -0.06,0 -0.11,0.01 -0.17,0.01 h -0.27 v -0.56 h 0.27 c 0.06,0 0.11,0 0.17,0 0.06,0 0.11,0.01 0.15,0.03 0.05,0.02 0.08,0.05 0.11,0.08 0.03,0.04 0.04,0.09 0.04,0.15 0,0.06 -0.01,0.12 -0.04,0.15 -0.03,0.04 -0.06,0.07 -0.11,0.08 -0.04,0.04 -0.09,0.05 -0.15,0.06 z"
         id="path8"
         style="fill:#0054ae" />
    </g>
  </g>
</svg>
