<?xml version="1.0" encoding="UTF-8" standalone="no"?>
<svg
   version="1.1"
   viewBox="0 0 799 298.53"
   id="svg25"
   xmlns:xlink="http://www.w3.org/1999/xlink"
   xmlns="http://www.w3.org/2000/svg"
   xmlns:svg="http://www.w3.org/2000/svg">
  <defs
     id="defs9">
    <style
       id="style1">
      .st0 {
        fill: #933;
      }

      .st1 {
        fill: #231f20;
      }

      .st2 {
        fill: #808285;
      }

      .st3 {
        fill: #818285;
      }

      .st4 {
        fill: url(#linear-gradient1);
      }

      .st4, .st5, .st6, .st7 {
        fill-rule: evenodd;
      }

      .st5 {
        fill: url(#linear-gradient4);
      }

      .st8 {
        fill: #c33;
      }

      .st9 {
        fill: url(#linear-gradient);
      }

      .st6 {
        fill: url(#linear-gradient3);
      }

      .st7 {
        fill: url(#linear-gradient2);
      }
    </style>
    <linearGradient
       id="linear-gradient"
       x1="626.72"
       y1="110.16"
       x2="626.72"
       y2="43.68"
       gradientUnits="userSpaceOnUse">
      <stop
         offset="0"
         stop-color="#fff"
         id="stop1" />
      <stop
         offset=".94"
         stop-color="#de4627"
         id="stop2" />
    </linearGradient>
    <linearGradient
       id="linear-gradient1"
       x1="-32.38"
       y1="428.68"
       x2="-30.36"
       y2="428.68"
       gradientTransform="translate(-24073.99 1844.97) rotate(90) scale(56.28 -56.28)"
       gradientUnits="userSpaceOnUse">
      <stop
         offset="0"
         stop-color="#231f20"
         id="stop3" />
      <stop
         offset=".09"
         stop-color="#2b2728"
         id="stop4" />
      <stop
         offset=".24"
         stop-color="#433f40"
         id="stop5" />
      <stop
         offset=".44"
         stop-color="#696767"
         id="stop6" />
      <stop
         offset=".66"
         stop-color="#9f9d9e"
         id="stop7" />
      <stop
         offset=".91"
         stop-color="#e3e2e2"
         id="stop8" />
      <stop
         offset="1"
         stop-color="#fff"
         id="stop9" />
    </linearGradient>
    <linearGradient
       id="linear-gradient2"
       x1="-32.69"
       y1="430.29"
       x2="-30.62"
       y2="430.29"
       gradientTransform="translate(-16972.96 1338.83) rotate(90) scale(40.07 -40.07)"
       xlink:href="#linear-gradient1" />
    <linearGradient
       id="linear-gradient3"
       x1="-32.48"
       y1="432.72"
       x2="-30.39"
       y2="432.72"
       gradientTransform="translate(-21181.55 1650.38) rotate(90) scale(50.04 -50.04)"
       xlink:href="#linear-gradient1" />
    <linearGradient
       id="linear-gradient4"
       x1="-32.99"
       y1="437.55"
       x2="-30.95"
       y2="437.55"
       gradientTransform="translate(-12461.29 1027.23) rotate(90) scale(30.09 -30.09)"
       xlink:href="#linear-gradient1" />
  </defs>
  <g
     id="Layer_2">
    <polygon
       class="st1"
       points="81.83 40.92 81.83 154.81 156.68 154.81 156.68 203.05 25.87 203.05 25.87 40.92 81.83 40.92"
       id="polygon9" />
    <polygon
       class="st1"
       points="234.55 40.92 267.92 95.7 301.29 40.92 358.92 40.92 358.92 203.05 303.2 203.05 303.2 127.29 268.66 180.76 266.27 180.76 231.73 127.28 231.73 203.05 176.91 203.05 176.91 40.92 234.55 40.92"
       id="polygon10" />
    <path
       class="st1"
       d="M470.55,107.63l-12.6,33.51h25.21l-12.61-33.51ZM443.71,39.79h54.61l68.12,163.33-60.62-.07-8.42-21.38h-53.89l-8.19,21.38h-59.84l68.24-163.26Z"
       id="path10" />
    <polygon
       class="st1"
       points="685.7 40.92 665.15 71.28 697.09 118.44 749.59 40.92 685.7 40.92"
       id="polygon11" />
    <polygon
       class="st1"
       points="751.1 202.8 696.9 122.85 665.35 169.45 687.97 202.8 751.1 202.8"
       id="polygon12" />
    <g
       id="g13">
      <polygon
         class="st8"
         points="574.31 201.67 629.43 120.33 576.58 42.3 637.14 42.3 689.98 120.33 634.85 201.67 574.31 201.67"
         id="polygon13" />
      <path
         class="st0"
         d="M636.41,43.68l51.9,76.65-54.19,79.96h-57.21l53.14-78.41,1.05-1.55-1.05-1.55-50.87-75.11h57.23M637.87,40.92h-63.9l53.79,79.42-56.06,82.72h63.88l56.06-82.72-53.77-79.42h0Z"
         id="path13" />
    </g>
    <path
       class="st9"
       d="M579.28,43.68h57.15l37.72,55.66s-13.92,6.72-49.91,10.82l-44.97-66.48Z"
       id="path14" />
    <path
       class="st4"
       d="M28.58,135.88c15.82-6.74,34.51-12.31,50.54-15.18V43.63H28.58v92.25Z"
       id="path15" />
    <path
       class="st7"
       d="M267.92,100.75l-34.77-57.12h-53.52v68.13c65.71-8.2,130.66-5.23,176.59.28V43.63h-52.92l-35.37,57.12Z"
       id="path16" />
    <path
       class="st6"
       d="M445.52,42.5l-32.32,77.34c14.03,2.44,28.54,3.01,48.06,4.85l9.3-24.75,9.39,24.96c17.07.61,31.12-1.32,49.3-4.1l-32.73-78.29h-50.99Z"
       id="path17" />
    <path
       class="st5"
       d="M687.17,43.65l-18.67,27.6,15.5,22.99c15.81-4.94,24.89-8.72,37.23-16.39l23.16-34.2h-57.23Z"
       id="path18" />
    <g
       id="g19">
      <polygon
         class="st2"
         points="759.53 42.02 754.48 42.02 754.48 40.32 766.59 40.32 766.59 42.02 761.54 42.02 761.54 55.47 759.53 55.47 759.53 42.02"
         id="polygon18" />
      <polygon
         class="st2"
         points="768.32 40.32 771.08 40.32 775.86 53.05 780.65 40.32 783.41 40.32 783.41 55.47 781.5 55.47 781.5 42.86 781.46 42.86 776.72 55.47 775 55.47 770.27 42.86 770.23 42.86 770.23 55.47 768.32 55.47 768.32 40.32"
         id="polygon19" />
    </g>
  </g>
  <g
     id="Layer_1">
    <g
       id="g25">
      <rect
         class="st3"
         x="26.05"
         y="245.43"
         width="107.97"
         height="5.01"
         id="rect19" />
      <rect
         class="st3"
         x="644.59"
         y="245.43"
         width="107.97"
         height="5.01"
         id="rect20" />
      <g
         id="g24">
        <path
           class="st3"
           d="M193.4,249.03v-.13c0-12.16,8.93-22.92,22.23-22.92,7.47,0,12.09,2.15,16.53,5.89l-3.23,3.8c-3.42-2.98-7.22-5.07-13.49-5.07-9.82,0-16.84,8.29-16.84,18.17v.13c0,10.57,6.78,18.43,17.54,18.43,5.07,0,9.75-1.96,12.79-4.43v-11.02h-13.49v-4.5h18.3v17.67c-4.12,3.67-10.32,6.78-17.79,6.78-13.93,0-22.54-10.13-22.54-22.8Z"
           id="path20" />
        <path
           class="st3"
           d="M288.06,226.74h19.06c5.45,0,9.81,1.65,12.6,4.43,2.15,2.15,3.42,5.26,3.42,8.74v.13c0,7.35-5.07,11.65-12.03,12.92l13.61,18.11h-6.14l-12.85-17.22h-12.66v17.22h-5v-44.32ZM306.67,249.35c6.65,0,11.4-3.42,11.4-9.12v-.13c0-5.45-4.18-8.74-11.33-8.74h-13.68v17.98h13.61Z"
           id="path21" />
        <path
           class="st3"
           d="M374.93,249.03v-.13c0-12.22,9.18-22.92,22.67-22.92s22.54,10.57,22.54,22.8v.13c0,12.22-9.18,22.92-22.67,22.92s-22.54-10.57-22.54-22.8ZM414.95,249.03v-.13c0-10.07-7.34-18.3-17.48-18.3s-17.35,8.11-17.35,18.17v.13c0,10.07,7.35,18.3,17.48,18.3s17.35-8.11,17.35-18.17Z"
           id="path22" />
        <path
           class="st3"
           d="M473.07,252.52v-25.77h5v25.45c0,9.56,5.13,14.94,13.55,14.94s13.36-4.94,13.36-14.63v-25.77h5v25.39c0,12.92-7.41,19.63-18.49,19.63s-18.43-6.71-18.43-19.25Z"
           id="path23" />
        <path
           class="st3"
           d="M564.89,226.74h16.59c10,0,16.59,5.32,16.59,14.06v.13c0,9.56-7.98,14.5-17.41,14.5h-10.77v15.64h-5v-44.32ZM580.84,250.87c7.35,0,12.16-3.93,12.16-9.75v-.13c0-6.33-4.75-9.62-11.9-9.62h-11.21v19.5h10.95Z"
           id="path24" />
      </g>
    </g>
  </g>
</svg>
