<svg width="686" height="238" viewBox="0 0 686 238" fill="none" xmlns="http://www.w3.org/2000/svg">
<g clip-path="url(#clip0_3_76)">
<path d="M115.643 103.5L125.357 151.29H128.838L138.551 103.5H166.914V178.769H151.434V116.695H147.954L134.448 178.769H119.799L106.293 116.695H102.813V178.769H87.2812V103.5H115.643ZM204.522 119.448C222.391 119.448 232.781 130.149 232.781 149.68C232.781 169.212 222.443 179.912 204.522 179.912C186.601 179.912 176.264 169.212 176.264 149.68C176.316 130.097 186.653 119.448 204.522 119.448ZM204.522 167.861C212.574 167.861 216.418 163.498 216.418 153.888V145.369C216.418 135.759 212.626 131.395 204.522 131.395C196.419 131.395 192.627 135.759 192.627 145.369V153.888C192.679 163.498 196.471 167.861 204.522 167.861ZM239.118 167.549L268.675 131.759H239.533V120.539H287.115V131.759L257.559 167.549H287.531V178.769H239.118V167.549ZM295.635 120.539H317.452V178.769H301.972V131.759H295.635V120.539ZM301.972 103.5H317.452V114.721H301.972V103.5ZM327.685 103.5H349.502V178.769H334.022V114.721H327.685V103.5ZM359.787 103.5H381.604V178.769H366.125V114.721H359.787V103.5ZM414.849 119.448C423.472 119.448 429.134 123.707 430.797 131.135H434.277V120.539H452.718V131.759H446.38V167.549H452.718V178.769H443.887C437.653 178.769 434.277 175.393 434.277 169.16V168.173H430.797C429.134 175.601 423.472 179.86 414.849 179.86C401.24 179.86 391.63 168.277 391.63 149.628C391.63 130.98 401.24 119.448 414.849 119.448ZM419.421 167.861C427.264 167.861 430.849 163.498 430.849 153.888V145.369C430.849 135.759 427.264 131.395 419.421 131.395C411.577 131.395 407.993 135.759 407.993 145.369V153.888C407.993 163.498 411.577 167.861 419.421 167.861Z" fill="black"/>
<path d="M510.324 178.77H494.844V57.6848H510.324V178.77ZM522.947 119.448H584.242V115.968L544.296 101.475V89.2157L584.242 74.7229V71.1906H536.92V57.6848H598.216V82.3589L565.698 93.5791V97.0595L598.216 108.28V132.954H522.947V119.448ZM522.947 71.1906H536.92V85.164H522.947V71.1906Z" fill="black"/>
</g>
<defs>
<clipPath id="clip0_3_76">
<rect width="510.936" height="122.176" fill="white" transform="translate(87.2812 57.6846)"/>
</clipPath>
</defs>
</svg>
