<?xml version="1.0" encoding="UTF-8" standalone="no"?>
<!-- Created with Inkscape (http://www.inkscape.org/) -->

<svg
   version="1.1"
   id="svg1"
   width="768"
   height="218.60133"
   viewBox="0 0 767.99999 218.60134"
   xmlns="http://www.w3.org/2000/svg"
   xmlns:svg="http://www.w3.org/2000/svg">
  <defs
     id="defs1" />
  <g
     id="g1"
     transform="translate(0,0.00132787)">
    <g
       id="group-R5">
      <path
         id="path4"
         d="M 0,1639.51 H 5760 V 0 H 0 v 1639.51"
         style="fill:#231f20;fill-opacity:1;fill-rule:nonzero;stroke:none"
         transform="matrix(0.13333333,0,0,-0.13333333,0,218.6)" />
      <path
         id="path5"
         d="m 1579.95,492.82 h 95.9 V 336.859 h -302.11 v 403.934 c 0,124.133 -41.46,171.738 -122.97,171.738 -99.07,0 -139.1,-69.965 -139.1,-170.304 V 492.82 h 95.9 V 336.859 H 905.746 v 403.934 c 0,124.133 -41.484,171.738 -122.973,171.738 -99.07,0 -139.113,-69.965 -139.113,-170.304 V 492.82 H 781.047 V 336.859 H 341.836 V 492.82 h 95.922 V 898.473 H 341.836 V 1054.43 H 643.66 V 946.344 c 43.215,76.236 118.383,122.416 218.895,122.416 103.968,0 199.585,-49.31 234.995,-154.24 40.05,95.46 121.53,154.24 235.02,154.24 129.29,0 247.67,-77.983 247.67,-247.979 V 492.82 Z m 567.35,-14.332 c -111.73,0 -169.33,95.461 -169.33,219.594 0,135.301 65.37,212.992 171.09,212.992 97.31,0 175.66,-65.066 175.66,-209.855 0,-136.739 -70.28,-222.731 -177.42,-222.731 z m 4.92,589.962 c -258.93,0 -386.78,-173.423 -386.78,-383.278 0,-229.063 153.48,-364.07 375.53,-364.07 230.1,0 396.3,144.769 396.3,373.804 0,200.41 -126.43,373.564 -385.05,373.564 z m 1032.47,-464.391 163,-15.778 -44.65,-251.422 h -629.55 l -20.75,108.082 396.3,453.243 h -225.22 l -31.96,-111.239 -148.62,16.067 25.63,251.398 h 632.74 L 3317.76,946.344 2917.99,492.82 h 233.28 z m 313.9,-9.469 h 215.74 V 336.859 h -215.74 z m 0,459.53 h 215.74 V 796.699 h -215.74 z m 865.17,377.01 -311.62,-1094.271 h -202.75 l 311.62,1094.251 h 202.75 z m 418.45,0 -311.62,-1094.271 h -203.01 l 311.6,1094.251 h 203.03 z m 276.77,-963.829 c -62.22,0 -84.67,36.687 -84.67,82.859 0,77.981 63.95,98.613 137.38,98.613 33.42,0 70.27,-4.875 103.97,-9.464 -4.9,-119.547 -83.23,-172.008 -156.68,-172.008 z m 442.38,-4.59 c -11.23,-3.16 -20.75,-4.879 -30.23,-4.879 -33.7,0 -49.55,14.348 -49.55,55.617 v 311.653 c 0,163.687 -131.03,243.388 -285.97,243.388 -118.4,0 -182.01,-14.35 -308.47,-65.07 l -28.21,-165.139 164.45,-17.48 23.33,80.847 c 33.7,17.481 67.12,20.637 110.28,20.637 116.67,0 118.39,-87.445 118.39,-160.551 v -23.769 c -36.85,4.855 -78.35,6.293 -118.39,6.293 -164.43,0 -335.5,-41.278 -335.5,-217.867 0,-149.36 118.07,-205.27 222.04,-205.27 116.63,0 190.08,69.938 231.55,143.051 9.5,-87.434 62.21,-143.051 158.12,-143.051 44.63,0 91.01,12.598 129.31,33.551 l -1.15,108.058 v -0.019"
         style="fill:#ffffff;fill-opacity:1;fill-rule:nonzero;stroke:none"
         transform="matrix(0.13333333,0,0,-0.13333333,0,218.6)" />
    </g>
  </g>
</svg>
