<?xml version="1.0" encoding="UTF-8"?>
<svg id="Layer_1" xmlns="http://www.w3.org/2000/svg" version="1.1" viewBox="0 0 600.1 157.5">
  <!-- Generator: Adobe Illustrator 29.3.1, SVG Export Plug-In . SVG Version: 2.1.0 Build 151)  -->
  <defs>
    <style>
      .st0 {
        fill: #fff;
      }

      .st1 {
        fill: #d40000;
      }
    </style>
  </defs>
  <path class="st1" d="M600,.2H0v157.3h600V.2Z"/>
  <path class="st0" d="M23.9,133.5v-13.6l59.7-81H23.9v-14.9h80.1v13.6l-59.7,81h59.7v14.9H23.9Z"/>
  <path class="st0" d="M114.5,133.5l41.6-109.5h17.2l41.6,109.5h-18.5l-9.7-25.6h-45.2l-9.7,25.6h-17.4ZM147.1,92.9h33.9l-16.9-47.2-17,47.2Z"/>
  <path class="st0" d="M229.7,133.5V24.1h41.9c12.6,0,21.8,2.7,27.7,8.1,5.9,5.3,8.9,12.4,8.9,21.1s-1.5,10.5-4.5,14.5c-3,4-7,6.8-11.9,8.6,6.5,1.5,11.6,4.4,15.3,8.9,3.9,4.4,5.8,10.1,5.8,17.2s-1.3,11.4-3.9,16.1c-2.6,4.6-6.8,8.2-12.5,10.9-5.6,2.6-13,3.9-22,3.9h-44.7ZM246.9,118.7h26.3c8.7,0,14.5-1.5,17.7-4.4,3.2-2.9,4.8-7.1,4.8-12.7s-1.6-9.8-4.8-12.8c-3.2-3.1-9.2-4.7-17.8-4.7h-26.1v34.6ZM246.9,70.4h23.3c7.9,0,13.3-1.5,16.3-4.4,3-2.9,4.5-6.8,4.5-11.6s-1.5-8.7-4.5-11.4c-2.9-2.7-8.3-4.1-16.3-4.1h-23.3v31.4Z"/>
  <path class="st0" d="M333.9,133.5V24.1h41.9c12.6,0,21.8,2.7,27.7,8.1,5.9,5.3,8.9,12.4,8.9,21.1s-1.5,10.5-4.5,14.5c-3,4-7,6.8-11.9,8.6,6.5,1.5,11.6,4.4,15.3,8.9,3.9,4.4,5.8,10.1,5.8,17.2s-1.3,11.4-3.9,16.1c-2.6,4.6-6.8,8.2-12.5,10.9-5.6,2.6-13,3.9-22,3.9h-44.7ZM351.1,118.7h26.3c8.7,0,14.5-1.5,17.7-4.4,3.2-2.9,4.8-7.1,4.8-12.7s-1.6-9.8-4.8-12.8c-3.2-3.1-9.2-4.7-17.8-4.7h-26.1v34.6ZM351.1,70.4h23.3c7.9,0,13.3-1.5,16.3-4.4,3-2.9,4.5-6.8,4.5-11.6s-1.5-8.7-4.5-11.4c-2.9-2.7-8.3-4.1-16.3-4.1h-23.3v31.4Z"/>
  <path class="st0" d="M441.7,133.5V24.1h17.2v109.5h-17.2Z"/>
  <path class="st0" d="M479.4,133.5l38-56.6-36.4-52.9h19.2l27.7,39.9,28-39.9h18.6l-36.3,52.5,37.8,56.9h-19.5l-28.9-44.3-29.2,44.3h-18.9Z"/>
</svg>