<?xml version="1.0" standalone="no"?>
<!DOCTYPE svg PUBLIC "-//W3C//DTD SVG 20010904//EN"
 "http://www.w3.org/TR/2001/REC-SVG-20010904/DTD/svg10.dtd">
<svg version="1.0" xmlns="http://www.w3.org/2000/svg"
 width="128.000000pt" height="128.000000pt" viewBox="0 0 128.000000 128.000000"
 preserveAspectRatio="xMidYMid meet">
<metadata>
Created by potrace 1.11, written by Peter Selinger 2001-2013
</metadata>
<g transform="translate(0.000000,128.000000) scale(0.100000,-0.100000)"
fill="#000000" stroke="none">
<path d="M540 1260 c-5 -9 -12 -39 -16 -66 -3 -27 -8 -51 -11 -54 -2 -2 -24
-12 -49 -22 -45 -17 -46 -16 -68 5 -12 12 -33 33 -48 46 l-27 23 -30 -21 c-32
-23 -33 -34 -6 -111 l15 -43 -33 -37 -34 -37 -49 13 c-72 19 -82 17 -100 -17
l-16 -31 47 -48 c44 -45 47 -50 41 -87 -9 -51 -16 -61 -49 -67 -16 -3 -44 -10
-63 -16 -33 -11 -35 -15 -32 -48 3 -36 5 -38 68 -58 36 -11 65 -25 65 -30 1
-5 4 -27 9 -48 7 -38 6 -41 -41 -82 l-48 -42 17 -36 c16 -32 20 -35 50 -30 18
3 46 10 63 15 26 9 33 6 67 -29 l38 -38 -24 -62 -24 -62 25 -20 c14 -11 30
-20 36 -20 10 0 69 41 94 66 13 13 49 8 59 -7 3 -5 14 -9 24 -9 21 0 24 -10
35 -92 3 -27 7 -48 8 -48 71 -15 71 -14 102 51 17 34 35 62 40 62 6 0 25 4 43
8 37 8 49 0 89 -64 21 -34 28 -38 51 -32 46 11 51 21 46 94 l-5 68 31 13 c16
7 30 16 30 21 0 16 28 10 76 -16 59 -31 68 -31 93 1 20 25 20 26 1 57 -55 90
-53 83 -25 131 l25 43 64 -2 65 -1 9 38 10 38 -57 33 -56 33 -3 57 c-2 45 0
57 12 57 8 0 35 12 60 27 39 24 44 31 39 53 -10 41 -22 49 -86 52 -60 3 -61 3
-84 46 l-24 43 35 52 c20 29 36 56 36 60 0 4 -11 20 -24 34 l-24 26 -62 -32
c-35 -18 -65 -29 -69 -24 -3 5 -21 19 -39 32 l-32 22 6 68 7 68 -33 12 c-18 6
-34 11 -36 11 -2 0 -21 -24 -43 -52 -40 -53 -40 -53 -90 -50 l-49 4 -23 64
c-22 61 -23 63 -56 62 -21 -1 -38 -8 -43 -18z m245 -319 c101 -45 182 -166
189 -283 5 -102 -28 -185 -105 -260 -88 -85 -226 -111 -345 -67 -84 32 -163
113 -192 197 -23 69 -23 160 0 224 51 141 199 234 344 216 35 -4 84 -16 109
-27z"/>
<path d="M504 733 c-79 -15 -92 -148 -17 -182 90 -41 173 43 132 133 -11 23
-65 58 -86 55 -4 -1 -18 -4 -29 -6z"/>
<path d="M712 727 c-62 -35 -73 -108 -23 -158 76 -75 194 2 158 104 -17 50
-89 79 -135 54z"/>
</g>
</svg>
