<?xml version="1.0" encoding="UTF-8" standalone="no"?>
<svg
   xmlns:dc="http://purl.org/dc/elements/1.1/"
   xmlns:cc="http://creativecommons.org/ns#"
   xmlns:rdf="http://www.w3.org/1999/02/22-rdf-syntax-ns#"
   xmlns:svg="http://www.w3.org/2000/svg"
   xmlns="http://www.w3.org/2000/svg"
   viewBox="0 0 1134.8995 152.54239"
   height="152.54239"
   width="1134.8995"
   xml:space="preserve"
   id="svg2"
   version="1.1"><metadata
     id="metadata8"><rdf:RDF><cc:Work
         rdf:about=""><dc:format>image/svg+xml</dc:format><dc:type
           rdf:resource="http://purl.org/dc/dcmitype/StillImage" /><dc:title></dc:title></cc:Work></rdf:RDF></metadata><defs
     id="defs6"><clipPath
       id="clipPath20"
       clipPathUnits="userSpaceOnUse"><path
         id="path18"
         d="M 0,1080 H 1920 V 0 H 0 Z" /></clipPath></defs><g
     transform="matrix(1.3333333,0,0,-1.3333333,-712.55025,796.27145)"
     id="g10"><g
       style="fill:#000000"
       id="g14"><g
         style="fill:#000000"
         clip-path="url(#clipPath20)"
         id="g16"><g
           style="fill:#000000"
           transform="translate(584.1267,504.1068)"
           id="g22"><path
             id="path24"
             style="fill:#000000;fill-opacity:1;fill-rule:nonzero;stroke:none"
             d="M 0,0 C 9.765,0 16.479,4.883 16.479,14.648 16.479,24.566 9.765,29.449 0,29.449 H -28.838 V 0 Z m -4.425,46.233 c 9.918,0 15.564,4.272 15.564,13.58 0,9.155 -5.646,13.427 -15.564,13.427 H -28.838 V 46.233 Z m -42.289,43.791 h 41.831 c 20.904,0 33.874,-11.749 33.874,-27.007 0,-11.291 -6.03,-18.577 -12.97,-22.555 9.918,-3.205 19.073,-12.387 19.073,-25.967 0,-18.767 -14.495,-31.279 -38.146,-31.279 h -43.662 z" /></g><g
           style="fill:#000000"
           transform="translate(686.4319,519.8228)"
           id="g26"><path
             id="path28"
             style="fill:#000000;fill-opacity:1;fill-rule:nonzero;stroke:none"
             d="m 0,0 v 11.139 c 0,10.986 -9.308,19.225 -20.599,19.225 -11.901,0 -21.667,-7.934 -21.667,-24.718 0,-16.785 9.766,-24.719 21.82,-24.719 C -9.308,-19.073 0,-10.986 0,0 m -59.813,5.646 c 0,25.634 16.784,39.671 36.315,39.671 9.613,0 17.7,-4.554 23.498,-9.894 l 5.986,8.369 H 17.395 V -32.5 H 0 v 9.437 c -4.883,-5.188 -12.512,-10.963 -23.956,-10.963 -17.852,0 -35.857,14.038 -35.857,39.672" /></g><g
           style="fill:#000000"
           transform="translate(866.6165,563.6143)"
           id="g30"><path
             id="path32"
             style="fill:#000000;fill-opacity:1;fill-rule:nonzero;stroke:none"
             d="m 0,0 h -21.362 l -27.783,-31.591 -3.441,-3.752 v 65.86 H -69.98 V -76.292 h 17.394 v 35.343 l 3.441,-3.751 27.783,-31.592 H 0 l -33.877,38.146 z" /></g><g
           style="fill:#000000"
           transform="translate(752.304,501.2798)"
           id="g34"><path
             id="path36"
             style="fill:#000000;fill-opacity:1;fill-rule:nonzero;stroke:none"
             d="m 0,0 c -12.665,0 -22.125,8.697 -22.125,24.261 0,15.563 9.46,24.261 22.125,24.261 10.937,0 17.959,-5.444 20.426,-13.916 3.982,0.798 12.072,2.43 15.49,3.201 -3.797,16.367 -17.11,26.125 -36.069,26.125 -21.972,0 -39.061,-16.021 -39.061,-39.671 0,-23.651 17.089,-39.672 39.061,-39.672 18.554,0 31.582,9.38 35.98,26.146 -3.477,0.781 -11.505,2.4 -15.441,3.189 C 17.564,5.183 10.955,0 0,0" /></g><g
           style="fill:#000000"
           transform="translate(752.304,501.2798)"
           id="g38"><path
             id="path40"
             style="fill:#000000;fill-opacity:1;fill-rule:nonzero;stroke:none"
             d="m 0,0 c -12.665,0 -22.125,8.697 -22.125,24.261 0,15.563 9.46,24.261 22.125,24.261 10.937,0 17.959,-5.444 20.426,-13.916 3.982,0.798 12.072,2.43 15.49,3.201 -3.797,16.367 -17.11,26.125 -36.069,26.125 -21.972,0 -39.061,-16.021 -39.061,-39.671 0,-23.651 17.089,-39.672 39.061,-39.672 18.554,0 31.582,9.38 35.98,26.146 -3.477,0.781 -11.505,2.4 -15.441,3.189 C 17.564,5.183 10.955,0 0,0" /></g><g
           style="fill:#000000"
           transform="translate(1010.3723,594.2032)"
           id="g42"><path
             id="path44"
             style="fill:#000000;fill-opacity:1;fill-rule:nonzero;stroke:none"
             d="m 0,0 -31.747,-68.11 -0.025,-0.061 -0.025,0.061 L -63.544,0 h -19.15 v -106.808 h 17.357 v 72.191 l 25.468,-55.104 h 16.182 l 25.481,55.104 v -72.191 H 19.108 V 0 Z" /></g><g
           style="fill:#000000"
           transform="translate(1099.9934,519.8951)"
           id="g46"><path
             id="path48"
             style="fill:#000000;fill-opacity:1;fill-rule:nonzero;stroke:none"
             d="m 0,0 v 11.139 c 0,10.986 -9.308,19.225 -20.599,19.225 -11.901,0 -21.667,-7.934 -21.667,-24.718 0,-16.785 9.766,-24.719 21.82,-24.719 C -9.308,-19.073 0,-10.986 0,0 m -59.813,5.646 c 0,25.634 16.785,39.671 36.315,39.671 9.613,0 17.7,-4.554 23.498,-9.894 l 5.986,8.368 H 17.395 V -32.5 H 0 v 9.437 c -4.882,-5.188 -12.512,-10.963 -23.956,-10.963 -17.852,0 -35.857,14.038 -35.857,39.672" /></g><g
           style="fill:#000000"
           transform="translate(1129.6965,563.6865)"
           id="g50"><path
             id="path52"
             style="fill:#000000;fill-opacity:1;fill-rule:nonzero;stroke:none"
             d="m 0,0 h 11.408 l 5.987,-8.369 c 5.188,5.951 10.274,9.523 18.01,9.523 h 12.874 l 0.044,-16.541 H 28.757 c -7.187,0 -11.362,-3.372 -11.362,-11.485 v -49.42 H 0 Z" /></g><g
           style="fill:#000000"
           transform="translate(1347.9504,507.0781)"
           id="g54"><path
             id="path56"
             style="fill:#000000;fill-opacity:1;fill-rule:nonzero;stroke:none"
             d="M 0,0 V 41.655 H -14.19 V 56.608 H 0 V 71.373 L 17.547,81.55 V 56.608 h 17.09 V 41.655 H 17.547 V 2.723 c 0,-5.035 2.899,-7.324 8.697,-7.324 h 7.63 V -19.683 H 21.056 C 8.544,-19.683 0,-14.343 0,0" /></g><g
           style="fill:#000000"
           transform="translate(1292.3586,551.022)"
           id="g58"><path
             id="path60"
             style="fill:#000000;fill-opacity:1;fill-rule:nonzero;stroke:none"
             d="M 0,0 C 10.986,0 19.683,-6.256 20.751,-17.547 H -20.903 C -18.769,-6.408 -10.376,0 0,0 m 20.019,-37.655 c -2.881,-7.672 -9.214,-12.697 -19.714,-12.697 -12.207,0 -20.751,7.629 -21.515,20.141 h 58.44 v 5.34 C 37.23,-0.305 21.667,14.19 0,14.19 c -20.293,0 -38.146,-15.868 -38.146,-39.671 0,-23.803 15.258,-39.672 38.146,-39.672 17.772,0 29.963,8.641 35.282,24.293 -4.527,0.969 -9.751,2.063 -15.263,3.205" /></g><g
           style="fill:#000000"
           transform="translate(1256.8821,563.6866)"
           id="g62"><path
             id="path64"
             style="fill:#000000;fill-opacity:1;fill-rule:nonzero;stroke:none"
             d="M 0,0 H -21.362 L -52.586,-35.244 V 30.517 H -69.981 V -76.292 h 17.395 v 35.244 l 31.224,-35.244 H 0 l -33.878,38.146 z" /></g><g
           style="fill:#000000"
           transform="translate(910.3171,563.6143)"
           id="g66"><path
             id="path68"
             style="fill:#000000;fill-opacity:1;fill-rule:nonzero;stroke:none"
             d="m 0,0 h -21.361 l -33.796,-38.146 33.796,-38.146 H 0 l -33.877,38.146 z" /></g></g></g></g></svg>