<?xml version="1.0" encoding="UTF-8" standalone="no"?>
<svg
   width="376.76666mm"
   height="50.289352mm"
   viewBox="0 0 376.76666 50.289351"
   version="1.1"
   id="svg1"
   xmlns="http://www.w3.org/2000/svg"
   xmlns:svg="http://www.w3.org/2000/svg">
  <defs
     id="defs1" />
  <g
     id="layer1"
     transform="translate(140.75833,1936.7655)">
    <g
       id="g5"
       transform="matrix(0.26458333,0,0,0.26458333,-140.74775,-1936.7655)">
      <path
         d="m 247.7,137.01 v -4 c -0.53,-28 -16.25,-38.28 -39.95,-40.12 v -1.32 c 21.57,-2.91 34.62,-14.26 34.62,-42 v -2.64 c 0,-34.05 -22.9,-44.35 -80.7,-44.35 H -0.04 v 184.85 h 167.3 c 59.4,0 80.44,-13.22 80.44,-50.42 z M 52.2,41.71 h 103.87 c 26.37,0 34.1,3.69 34.1,16.1 v 1.06 c 0,11.87 -7.73,15.57 -32.76,15.57 H 52.2 Z m 103.61,69.69 c 30.63,0 39.68,2.9 39.68,17.95 v 1.05 c 0,14.52 -8.78,17.95 -39.68,17.95 H 52.2 V 111.4 Z"
         id="path1" />
      <path
         d="M 497.14,187.43 V 144.66 H 345.33 v -142 h -52.21 v 184.77 z"
         id="path2" />
      <path
         d="m 679.59,190.07 c 88.69,0 122.25,-23 122.25,-88.44 V 88.43 C 801.84,22.97 768.28,0 679.59,0 h -29.3 c -88.42,0 -122,23 -122,88.43 v 13.2 c 0,65.47 33.56,88.44 122,88.44 z m -8.26,-39.87 h -12.51 c -65.79,-0.26 -77.25,-12.93 -77.25,-52 v -6.07 c 0,-39.34 11.46,-52 77.25,-52.27 h 12.51 c 65.52,0.26 77.51,12.93 77.51,52.27 v 6.07 c 0,39.07 -11.99,51.74 -77.51,52 z"
         id="path3" />
      <path
         d="m 987.72,190.07 c 75.37,0 109.73,-17.17 116.92,-66.8 h -53.53 c -6.66,19.28 -22.11,26.93 -72.45,26.93 h -10.39 c -63.12,0 -74.84,-12.93 -74.84,-52 v -6.07 c 0,-39.34 11.72,-52.27 74.84,-52.27 h 10.39 c 50.34,0 65.79,7.65 72.45,26.92 h 53.53 C 1097.45,17.16 1063.09,0 987.72,0 H 958.96 C 872.66,0 840.17,23 840.17,88.43 v 13.2 c 0,65.47 32.49,88.44 118.79,88.44 z"
         id="path4" />
      <path
         d="m 1200.96,187.43 v -58.08 l 42.35,-24.55 h 1.6 l 101.74,82.63 h 77.31 l -134.5,-108.77 130.78,-76 h -79.68 l -138.23,81 h -1.37 v -81 h -52.2 v 184.77 z"
         id="path5" />
    </g>
  </g>
</svg>
