<?xml version="1.0" encoding="UTF-8" standalone="no"?>
<svg
   xmlns:dc="http://purl.org/dc/elements/1.1/"
   xmlns:cc="http://creativecommons.org/ns#"
   xmlns:rdf="http://www.w3.org/1999/02/22-rdf-syntax-ns#"
   xmlns:svg="http://www.w3.org/2000/svg"
   xmlns="http://www.w3.org/2000/svg"
   xmlns:sodipodi="http://sodipodi.sourceforge.net/DTD/sodipodi-0.dtd"
   xmlns:inkscape="http://www.inkscape.org/namespaces/inkscape"
   viewBox="0 0 637.5 150"
   height="150"
   width="637.5"
   xml:space="preserve"
   version="1.1"
   id="svg2"
   inkscape:version="0.91 r13725"
   sodipodi:docname="dreamhost.svg"><sodipodi:namedview
     pagecolor="#ffffff"
     bordercolor="#666666"
     borderopacity="1"
     objecttolerance="10"
     gridtolerance="10"
     guidetolerance="10"
     inkscape:pageopacity="0"
     inkscape:pageshadow="2"
     inkscape:window-width="1706"
     inkscape:window-height="800"
     id="namedview36"
     showgrid="false"
     inkscape:zoom="0.48627451"
     inkscape:cx="-28.790323"
     inkscape:cy="75"
     inkscape:window-x="0"
     inkscape:window-y="23"
     inkscape:window-maximized="0"
     inkscape:current-layer="svg2" /><metadata
     id="metadata8"><rdf:RDF><cc:Work
         rdf:about=""><dc:format>image/svg+xml</dc:format><dc:type
           rdf:resource="http://purl.org/dc/dcmitype/StillImage" /><dc:title /></cc:Work></rdf:RDF></metadata><defs
     id="defs6"><clipPath
       id="clipPath16"
       clipPathUnits="userSpaceOnUse"><path
         id="path18"
         d="M 0,120 510,120 510,0 0,0 0,120 Z" /></clipPath></defs><g
     id="g24"
     transform="matrix(1.25,0,0,-1.25,160.82787,93.84075)"><path
       inkscape:connector-curvature="0"
       d="m 0,0 5.452,0 c 9.76,0 17.097,3.702 17.097,14.539 0,9.356 -7.472,13.732 -16.357,13.732 L 0,28.271 0,0 Z m -10.5,37.963 15.75,0 C 20.597,37.963 33.453,31.434 33.453,14 33.453,-1.413 20.866,-9.692 6.664,-9.692 l -17.164,0 0,47.655 z"
       style="fill:#1f3244;fill-opacity:1;fill-rule:nonzero;stroke:none"
       id="path26" /></g><g
     id="g28"
     transform="matrix(1.25,0,0,-1.25,209.462,65.065375)"><path
       inkscape:connector-curvature="0"
       d="m 0,0 10.096,0 0,-5.25 0.135,0 c 2.154,3.971 4.981,6.058 9.423,6.058 1.145,0 2.424,-0.068 3.366,-0.337 l 0,-9.221 c -1.414,0.403 -2.827,0.672 -4.308,0.672 -7.673,0 -8.616,-4.442 -8.616,-10.971 l 0,-13.664 L 0,-32.713 0,0 Z"
       style="fill:#1f3244;fill-opacity:1;fill-rule:nonzero;stroke:none"
       id="path30" /></g><g
     id="g32"
     transform="matrix(1.25,0,0,-1.25,270.38763,80.88325)"><path
       inkscape:connector-curvature="0"
       d="m 0,0 c 0.067,3.366 -2.558,6.193 -6.193,6.193 -4.442,0 -6.865,-3.029 -7.134,-6.193 L 0,0 Z M 8.548,-14.404 C 5.317,-18.51 0,-20.866 -5.25,-20.866 c -10.097,0 -18.174,6.731 -18.174,17.164 0,10.433 8.077,17.164 18.174,17.164 9.423,0 15.346,-6.731 15.346,-17.164 l 0,-3.163 -23.423,0 c 0.807,-3.837 3.701,-6.328 7.606,-6.328 3.298,0 5.519,1.683 7.202,3.972 l 7.067,-5.183 z"
       style="fill:#1f3244;fill-opacity:1;fill-rule:nonzero;stroke:none"
       id="path34" /></g><g
     id="g36"
     transform="matrix(1.25,0,0,-1.25,311.73412,88.035)"><path
       inkscape:connector-curvature="0"
       d="m 0,0 c -3.096,0 -9.962,-0.27 -9.962,-4.712 0,-2.423 2.558,-3.567 4.779,-3.567 3.971,0 7.674,2.086 7.674,6.125 L 2.491,0 0,0 Z m 2.491,-10.231 -0.135,0 c -2.221,-3.501 -6.26,-4.914 -10.366,-4.914 -6.125,0 -11.644,3.501 -11.644,10.096 0,11.309 13.731,11.51 22.145,11.51 0,3.568 -2.962,5.857 -6.462,5.857 -3.298,0 -6.058,-1.481 -8.212,-3.904 l -5.385,5.519 c 3.702,3.5 9.087,5.25 14.405,5.25 11.779,0 14.943,-5.99 14.943,-16.894 l 0,-16.626 -9.289,0 0,4.106 z"
       style="fill:#1f3244;fill-opacity:1;fill-rule:nonzero;stroke:none"
       id="path38" /></g><g
     id="g40"
     transform="matrix(1.25,0,0,-1.25,334.36825,65.065375)"><path
       inkscape:connector-curvature="0"
       d="m 0,0 9.693,0 0,-4.443 0.135,0 c 1.346,2.558 4.644,5.251 9.558,5.251 4.577,0 8.346,-1.885 10.096,-5.856 2.356,4.173 5.52,5.856 10.366,5.856 8.885,0 11.577,-6.26 11.577,-14.203 l 0,-19.318 -10.096,0 0,19.049 c 0,3.029 -1.145,5.586 -4.442,5.586 -4.645,0 -6.126,-3.297 -6.126,-7.336 l 0,-17.299 -10.096,0 0,17.299 c 0,2.423 0.134,7.336 -4.51,7.336 -5.251,0 -6.058,-4.105 -6.058,-8.346 l 0,-16.289 L 0,-32.713 0,0 Z"
       style="fill:#1f3244;fill-opacity:1;fill-rule:nonzero;stroke:none"
       id="path42" /></g><g
     id="g44"
     transform="matrix(1.25,0,0,-1.25,406.6455,46.387)"><path
       inkscape:connector-curvature="0"
       d="m 0,0 10.5,0 0,-17.77 20.396,0 0,17.77 10.5,0 0,-47.655 -10.5,0 0,20.596 -20.396,0 0,-20.596 -10.5,0 L 0,0 Z"
       style="fill:#1f3244;fill-opacity:1;fill-rule:nonzero;stroke:none"
       id="path46" /></g><g
     id="g48"
     transform="matrix(1.25,0,0,-1.25,486.74737,95.859625)"><path
       inkscape:connector-curvature="0"
       d="m 0,0 c 5.048,0 8.077,3.365 8.077,8.279 0,4.913 -3.029,8.279 -8.077,8.279 -5.049,0 -8.077,-3.366 -8.077,-8.279 C -8.077,3.365 -5.049,0 0,0 m 0,25.443 c 10.096,0 18.174,-6.731 18.174,-17.164 0,-10.433 -8.078,-17.164 -18.174,-17.164 -10.096,0 -18.174,6.731 -18.174,17.164 0,10.433 8.078,17.164 18.174,17.164"
       style="fill:#1f3244;fill-opacity:1;fill-rule:nonzero;stroke:none"
       id="path50" /></g><g
     id="g52"
     transform="matrix(1.25,0,0,-1.25,538.4085,77.097375)"><path
       inkscape:connector-curvature="0"
       d="m 0,0 c -1.481,1.818 -3.433,2.76 -5.856,2.76 -1.683,0 -3.702,-0.741 -3.702,-2.693 0,-4.846 17.03,-0.74 17.03,-13.192 0,-8.347 -8.078,-10.77 -15.078,-10.77 -4.577,0 -9.625,1.145 -12.856,4.443 l 6.125,6.798 c 1.885,-2.289 4.106,-3.568 7.135,-3.568 2.289,0 4.577,0.607 4.577,2.356 0,5.25 -17.03,0.808 -17.03,13.26 0,7.674 6.866,11.039 13.732,11.039 4.308,0 9.087,-1.077 12.116,-4.308 L 0,0 Z"
       style="fill:#1f3244;fill-opacity:1;fill-rule:nonzero;stroke:none"
       id="path54" /></g><g
     id="g56"
     transform="matrix(1.25,0,0,-1.25,581.56488,75.1625)"><path
       inkscape:connector-curvature="0"
       d="m 0,0 -8.885,0 0,-10.904 c 0,-3.5 0.404,-6.058 4.779,-6.058 1.077,0 3.231,0.135 4.106,0.943 l 0,-8.414 c -2.221,-0.808 -4.712,-1.01 -7.068,-1.01 -6.731,0 -11.914,2.76 -11.914,9.895 l 0,15.548 -6.461,0 0,8.078 6.461,0 0,9.692 10.097,0 0,-9.692 L 0,8.078 0,0 Z"
       style="fill:#1f3244;fill-opacity:1;fill-rule:nonzero;stroke:none"
       id="path58" /></g><g
     id="g60"
     transform="matrix(1.25,0,0,-1.25,125.16438,92.304875)"><path
       inkscape:connector-curvature="0"
       d="m 0,0 c -4.874,-2.72 -10.534,-4.229 -16.55,-4.107 -17.734,0.359 -31.824,14.731 -31.476,32.095 0.124,5.897 1.887,11.37 4.868,16.026 C -52.653,38.713 -59.141,28.8 -59.377,17.324 -59.728,-0.041 -45.626,-14.413 -27.888,-14.771 -16.176,-15.01 -5.793,-9.071 0,0"
       style="fill:#1f3244;fill-opacity:1;fill-rule:nonzero;stroke:none"
       id="path62" /></g><g
     id="g64"
     transform="matrix(1.25,0,0,-1.25,104.07063,92.7705)"><path
       inkscape:connector-curvature="0"
       d="m 0,0 c 0.197,-0.004 0.393,-0.007 0.592,-0.007 4.628,0 9.193,1.148 13.252,3.303 2.391,4.102 3.785,8.86 3.785,13.956 0,15.31 -12.375,27.723 -27.646,27.723 -4.815,0 -9.339,-1.238 -13.28,-3.409 -2.545,-4.095 -3.948,-8.804 -4.05,-13.642 C -27.649,12.84 -15.381,0.312 0,0"
       style="fill:#3e95be;fill-opacity:1;fill-rule:nonzero;stroke:none"
       id="path66" /></g><g
     id="g68"
     transform="matrix(1.25,0,0,-1.25,589.68175,46.366)"><path
       inkscape:connector-curvature="0"
       d="M 0,0 0.674,0 C 0.819,0 0.961,0.005 1.1,0.015 1.238,0.024 1.361,0.053 1.466,0.099 1.572,0.145 1.658,0.218 1.724,0.317 1.789,0.416 1.823,0.551 1.823,0.723 1.823,0.868 1.793,0.985 1.733,1.074 1.674,1.164 1.598,1.231 1.506,1.278 1.413,1.324 1.311,1.353 1.199,1.367 1.086,1.38 0.974,1.387 0.862,1.387 L 0,1.387 0,0 Z m -0.654,1.921 1.625,0 c 1.003,0 1.506,-0.409 1.506,-1.228 0,-0.39 -0.11,-0.675 -0.327,-0.857 C 1.932,-0.346 1.661,-0.453 1.337,-0.485 l 1.238,-1.903 -0.703,0 -1.169,1.853 -0.703,0 0,-1.852 -0.654,0 0,4.308 z m -1.625,-2.159 c 0,-0.449 0.08,-0.865 0.238,-1.248 0.159,-0.383 0.373,-0.715 0.644,-0.996 0.271,-0.28 0.591,-0.502 0.961,-0.663 0.37,-0.162 0.766,-0.243 1.189,-0.243 0.422,0 0.817,0.081 1.183,0.243 0.367,0.161 0.687,0.383 0.961,0.663 0.275,0.281 0.491,0.613 0.649,0.996 0.159,0.383 0.238,0.799 0.238,1.248 0,0.442 -0.079,0.857 -0.237,1.243 C 3.388,1.392 3.172,1.725 2.897,2.006 2.623,2.287 2.303,2.507 1.937,2.669 1.57,2.831 1.176,2.912 0.753,2.912 0.33,2.912 -0.066,2.831 -0.436,2.67 -0.806,2.508 -1.126,2.287 -1.397,2.006 -1.668,1.725 -1.882,1.392 -2.041,1.005 -2.199,0.619 -2.279,0.204 -2.279,-0.238 m -0.653,0 c 0,0.522 0.097,1.009 0.292,1.461 0.195,0.453 0.461,0.842 0.797,1.169 0.337,0.327 0.728,0.585 1.174,0.773 0.446,0.188 0.92,0.282 1.422,0.282 0.502,0 0.976,-0.094 1.421,-0.282 C 2.62,2.977 3.012,2.719 3.348,2.392 3.685,2.065 3.951,1.675 4.146,1.223 4.341,0.771 4.438,0.284 4.438,-0.238 4.438,-0.766 4.341,-1.255 4.146,-1.704 3.951,-2.153 3.685,-2.541 3.348,-2.868 3.012,-3.195 2.62,-3.453 2.174,-3.641 1.728,-3.829 1.254,-3.923 0.753,-3.923 c -0.502,0 -0.976,0.094 -1.422,0.282 -0.446,0.189 -0.837,0.446 -1.174,0.773 -0.337,0.327 -0.603,0.715 -0.797,1.164 -0.195,0.449 -0.292,0.938 -0.292,1.466"
       style="fill:#1f3244;fill-opacity:1;fill-rule:nonzero;stroke:none"
       id="path70" /></g></svg>