<?xml version="1.0" encoding="UTF-8" standalone="no"?>
<svg
   xmlns:dc="http://purl.org/dc/elements/1.1/"
   xmlns:cc="http://creativecommons.org/ns#"
   xmlns:rdf="http://www.w3.org/1999/02/22-rdf-syntax-ns#"
   xmlns:svg="http://www.w3.org/2000/svg"
   xmlns="http://www.w3.org/2000/svg"
   viewBox="0 0 977.1837 132.89732"
   height="132.89732"
   width="977.18372"
   xml:space="preserve"
   id="svg2"
   version="1.1"><metadata
     id="metadata8"><rdf:RDF><cc:Work
         rdf:about=""><dc:format>image/svg+xml</dc:format><dc:type
           rdf:resource="http://purl.org/dc/dcmitype/StillImage" /><dc:title></dc:title></cc:Work></rdf:RDF></metadata><defs
     id="defs6"><clipPath
       id="clipPath18"
       clipPathUnits="userSpaceOnUse"><path
         id="path16"
         d="M 0,595.276 H 841.89 V 0 H 0 Z" /></clipPath></defs><g
     transform="matrix(1.3333333,0,0,-1.3333333,-72.259065,514.56492)"
     id="g10"><g
       id="g12"><g
         clip-path="url(#clipPath18)"
         id="g14"><g
           transform="translate(84.2031,351.2614)"
           id="g20"><path
             id="path22"
             style="fill:#000000;fill-opacity:1;fill-rule:nonzero;stroke:none"
             d="m 0,0 c 7.486,0 13.537,-6.255 13.537,-15.278 0,-9.33 -6.051,-14.868 -13.537,-14.868 -7.588,0 -13.639,5.538 -13.639,14.868 C -13.639,-6.255 -7.588,0 0,0 m -23.75,-43.778 h 4.846 c 2.909,0 5.265,2.356 5.265,5.265 v 2.318 c 4.309,-5.436 9.64,-8.1 17.229,-8.1 11.586,0 25.019,9.944 25.019,29.017 0,18.97 -13.433,29.429 -25.019,29.429 -7.589,0 -12.92,-2.664 -17.229,-8.1 v 22.826 c 0,2.912 -2.356,5.272 -5.265,5.272 h -4.846 c -2.909,0 -5.27,-2.36 -5.27,-5.272 v -67.39 c 0,-2.909 2.361,-5.265 5.27,-5.265 m 159.626,-0.517 c 4.903,0 8.502,0.794 12.078,2.137 1.246,0.468 2.071,1.664 2.071,2.995 v 7.51 c 0,2.204 -2.161,3.699 -4.252,2.999 -2.671,-0.895 -5.742,-1.476 -9.541,-1.492 -8.266,-0.031 -15.349,5.728 -15.727,14.675 -0.398,9.472 6.26,15.471 15.269,15.471 3.358,0 6.526,-0.479 9.535,-1.3 2.062,-0.565 4.105,0.916 4.105,3.051 v 7.373 c 0,1.352 -0.855,2.548 -2.12,3.015 -3.682,1.362 -7.417,2.012 -12.236,2.012 -15.485,0 -29.637,-9.946 -29.637,-29.019 0,-18.971 13.946,-29.427 30.455,-29.427 m 31.678,0.519 h 4.842 c 2.912,0 5.268,2.359 5.268,5.268 v 15.338 l 6.314,5.094 16.888,-24.089 c 0.688,-1.006 1.831,-1.611 3.056,-1.611 h 8.388 c 2.975,0 4.733,3.334 3.053,5.79 L 194.38,-8.302 211.439,6.155 c 2.532,2.264 0.928,6.459 -2.468,6.459 h -7.92 c -0.864,0 -1.704,-0.304 -2.368,-0.857 L 177.664,-5.446 v 34.323 c 0,2.912 -2.356,5.272 -5.268,5.272 h -4.842 c -2.912,0 -5.27,-2.36 -5.27,-5.272 v -67.385 c 0,-2.909 2.358,-5.268 5.27,-5.268 m 530.059,56.39 h -14.092 v 7.754 c 0,2.912 -2.363,5.27 -5.272,5.27 h -4.843 c -2.909,0 -5.27,-2.358 -5.27,-5.27 v -7.754 h -2.933 c -2.906,0 -5.269,-2.356 -5.269,-5.268 v -2.79 c 0,-2.911 2.363,-5.273 5.269,-5.273 h 2.933 v -20.2 c 0,-14.561 6.462,-23.374 19.79,-23.374 v -0.004 c 1.912,0 9.467,0.18 11.137,0.517 1.455,0.287 2.482,1.59 2.482,3.07 v 8.554 c 0,1.837 -1.602,3.471 -3.402,3.115 -11.371,-2.232 -14.622,1.455 -14.622,6.279 v 22.043 h 14.092 c 2.912,0 5.266,2.362 5.266,5.273 v 2.79 c 0,2.912 -2.354,5.268 -5.266,5.268 M 65.283,0 c 7.588,0 13.636,-6.357 13.636,-15.278 0,-9.537 -6.048,-14.868 -13.636,-14.868 -7.486,0 -13.537,5.744 -13.537,14.868 C 51.746,-6.15 57.797,0 65.283,0 m -3.588,-44.295 c 7.589,0 13.433,2.664 17.224,9.125 v -3.338 c 0,-2.909 2.362,-5.268 5.268,-5.268 h 4.848 c 2.906,0 5.268,2.359 5.268,5.268 V 7.346 c 0,2.909 -2.362,5.268 -5.268,5.268 h -4.848 c -2.906,0 -5.268,-2.359 -5.268,-5.268 V 5.025 c -3.689,6.462 -9.329,9.126 -17.224,9.126 -11.589,0 -25.021,-10.459 -25.021,-29.429 0,-19.073 13.639,-29.017 25.021,-29.017 m 488.034,0.519 h 4.844 c 2.909,0 5.268,2.359 5.268,5.268 v 15.338 l 6.311,5.094 16.888,-24.089 c 0.69,-1.006 1.837,-1.611 3.059,-1.611 h 8.387 c 2.976,0 4.732,3.334 3.054,5.79 l -20.982,29.684 17.057,14.457 c 2.532,2.264 0.928,6.459 -2.468,6.459 h -7.918 c -0.868,0 -1.703,-0.304 -2.372,-0.857 L 559.841,-5.446 v 34.323 c 0,2.912 -2.359,5.272 -5.268,5.272 h -4.844 c -2.91,0 -5.268,-2.36 -5.268,-5.272 v -67.385 c 0,-2.909 2.358,-5.268 5.268,-5.268 m -215.682,0.003 h 4.843 c 2.911,0 5.269,2.358 5.269,5.267 v 26.927 c 0,9.021 5.845,12.203 11.692,12.203 6.252,0 10.048,-3.794 10.048,-13.124 v -26.006 c 0,-2.911 2.357,-5.27 5.268,-5.27 h 4.843 c 2.911,0 5.272,2.359 5.272,5.27 v 26.924 c 0,9.024 5.842,12.206 11.687,12.206 6.254,0 10.052,-3.794 10.052,-13.124 v -26.008 c 0,-2.909 2.357,-5.268 5.266,-5.268 h 4.846 c 2.906,0 5.267,2.359 5.267,5.268 v 27.233 c 0,18.555 -9.698,25.426 -20.465,25.426 -8.969,0 -15.559,-2.821 -19.31,-10.746 -3.515,7.327 -9.444,10.746 -17.137,10.746 -7.792,0 -14.355,-3.383 -17.329,-8.919 v 2.112 c 0,2.909 -2.358,5.27 -5.269,5.27 h -4.843 c -2.907,0 -5.268,-2.361 -5.268,-5.27 v -45.85 c 0,-2.909 2.361,-5.267 5.268,-5.267 m 171.877,-0.003 h 4.841 c 2.908,0 5.269,2.359 5.269,5.268 v 20.975 c 0,12.719 6.267,15.692 14.816,15.692 2.733,0 4.824,2.508 4.824,5.244 V 8.08 c 0,3.229 -2.287,5.481 -5.507,5.236 -5.664,-0.427 -12.002,-3.524 -14.133,-11.159 v 5.189 c 0,2.909 -2.361,5.268 -5.269,5.268 h -4.841 c -2.914,0 -5.271,-2.359 -5.271,-5.268 v -45.854 c 0,-2.909 2.357,-5.268 5.271,-5.268 M 629.021,0.923 c 6.663,0 9.839,-4.1 10.661,-10.663 l -23.074,0.002 c 1.336,6.663 5.331,10.661 12.413,10.661 m 4.099,-45.218 c 4.678,0 8.986,0.552 12.978,1.655 2.021,0.558 3.425,2.397 3.425,4.494 v 5.52 c 0,2.458 -2.335,4.252 -4.71,3.616 -4.294,-1.156 -8.183,-1.547 -11.287,-1.547 -9.431,0 -14.765,4 -16.405,10.255 h 32.232 c 2.572,0 4.646,2.074 4.689,4.649 0.213,12.846 -4.756,29.804 -25.232,29.804 -14.458,0 -27.07,-9.946 -27.07,-29.019 0,-18.971 13.33,-29.427 31.38,-29.427 M 457.298,0 c 7.586,0 13.634,-6.357 13.634,-15.278 0,-9.537 -6.048,-14.868 -13.634,-14.868 -7.486,0 -13.539,5.744 -13.539,14.868 0,9.128 6.053,15.278 13.539,15.278 m -3.59,-44.295 c 7.588,0 13.432,2.664 17.224,9.125 v -3.338 c 0,-2.909 2.361,-5.268 5.272,-5.268 h 4.841 c 2.911,0 5.269,2.359 5.269,5.268 V 7.346 c 0,2.909 -2.358,5.268 -5.269,5.268 h -4.841 c -2.911,0 -5.272,-2.359 -5.272,-5.268 V 5.025 c -3.693,6.462 -9.33,9.126 -17.224,9.126 -11.589,0 -25.021,-10.459 -25.021,-29.429 0,-19.073 13.638,-29.017 25.021,-29.017" /></g><g
           transform="translate(783.7363,292.8117)"
           id="g24"><path
             id="path26"
             style="fill:#4addaf;fill-opacity:1;fill-rule:nonzero;stroke:none"
             d="m 0,0 -129.724,0.053 c -0.23,0.05 -0.467,0.083 -0.712,0.083 H -337.16 c -41.745,0 -71.341,1.635 -89.87,9.771 -35.744,15.698 -33.941,42.656 -33.841,43.844 0.005,0.048 -0.005,0.098 -0.003,0.147 0.003,0.048 0.015,0.096 0.015,0.143 0,17.927 14.583,32.51 32.509,32.51 17.927,0 32.511,-14.583 32.511,-32.51 0,-0.05 0.011,-0.097 0.014,-0.147 0.002,-0.047 -0.008,-0.093 -0.003,-0.14 0.086,-1.023 1.545,-22.729 -23.766,-38.544 2.508,-0.878 5.242,-1.663 8.222,-2.368 23.92,17.673 22.181,40.376 22.079,41.5 l -0.002,0.017 c -0.176,21.395 -17.619,38.753 -39.055,38.753 -21.436,0 -38.88,-17.358 -39.053,-38.753 l -0.003,-0.009 c -0.121,-1.336 -2.534,-32.762 37.737,-50.449 19.204,-8.435 47.49,-10.239 89.5,-10.319 0.026,0 0.053,-0.008 0.078,-0.008 L -0.005,-6.561 h 0.003 c 1.81,0 3.278,1.469 3.278,3.28 C 3.276,-1.471 1.811,-0.002 0,0" /></g><g
           transform="translate(264.1973,292.9475)"
           id="g28"><path
             id="path30"
             style="fill:#4addaf;fill-opacity:1;fill-rule:nonzero;stroke:none"
             d="m 0,0 h -206.724 c -1.811,0 -3.279,-1.469 -3.279,-3.282 0,-1.811 1.468,-3.28 3.279,-3.28 L 0,-6.562 c 35.694,0 61.672,1.132 80.711,6.253 C 77.833,1.2 75.142,2.835 72.584,4.558 54.618,0.89 30.583,0 0,0" /></g></g></g></g></svg>